<?xml version="1.0" encoding="us-ascii" standalone="no"?><svg xmlns="http://www.w3.org/2000/svg" xmlns:xlink="http://www.w3.org/1999/xlink" contentStyleType="text/css" height="896.4px" preserveAspectRatio="none" style="width:2201px;height:896px;background:#FFFFFF;" version="1.1" viewBox="0 0 2201 896" width="2201.4px" zoomAndPan="magnify"><defs/><g><!--cluster js--><g id="cluster_js"><path d="M5.1,3.6082 L12.9,3.6082 A2.25,2.25 0 0 1 14.4,5.1082 L18.6,18.3809 L2195.7,18.3809 A1.5,1.5 0 0 1 2197.2,19.8809 L2197.2,890.7082 A1.5,1.5 0 0 1 2195.7,892.2082 L5.1,892.2082 A1.5,1.5 0 0 1 3.6,890.7082 L3.6,5.1082 A1.5,1.5 0 0 1 5.1,3.6082 " fill="none" style="stroke:#000000;stroke-width:0.8999999999999999;"/><line style="stroke:#000000;stroke-width:0.8999999999999999;" x1="3.6" x2="18.6" y1="18.3809" y2="18.3809"/><text fill="#000000" font-family="sans-serif" font-size="8.4" font-weight="bold" lengthAdjust="spacing" textLength="7.2" x="6" y="13.8727">js</text></g><!--cluster pattern--><g id="cluster_pattern"><path d="M301.5,233.4082 L332.7,233.4082 A2.25,2.25 0 0 1 334.2,234.9082 L338.4,248.1809 L1928.1,248.1809 A1.5,1.5 0 0 1 1929.6,249.6809 L1929.6,876.3082 A1.5,1.5 0 0 1 1928.1,877.8082 L301.5,877.8082 A1.5,1.5 0 0 1 300,876.3082 L300,234.9082 A1.5,1.5 0 0 1 301.5,233.4082 " fill="none" style="stroke:#000000;stroke-width:0.8999999999999999;"/><line style="stroke:#000000;stroke-width:0.8999999999999999;" x1="300" x2="338.4" y1="248.1809" y2="248.1809"/><text fill="#000000" font-family="sans-serif" font-size="8.4" font-weight="bold" lengthAdjust="spacing" textLength="30.6" x="302.4" y="243.6727">pattern</text></g><!--cluster builder--><g id="cluster_builder"><path d="M1705.5,260.4082 L1736.1,260.4082 A2.25,2.25 0 0 1 1737.6,261.9082 L1741.8,275.1809 L1913.7,275.1809 A1.5,1.5 0 0 1 1915.2,276.6809 L1915.2,455.1082 A1.5,1.5 0 0 1 1913.7,456.6082 L1705.5,456.6082 A1.5,1.5 0 0 1 1704,455.1082 L1704,261.9082 A1.5,1.5 0 0 1 1705.5,260.4082 " fill="none" style="stroke:#000000;stroke-width:0.8999999999999999;"/><line style="stroke:#000000;stroke-width:0.8999999999999999;" x1="1704" x2="1741.8" y1="275.1809" y2="275.1809"/><text fill="#000000" font-family="sans-serif" font-size="8.4" font-weight="bold" lengthAdjust="spacing" textLength="30" x="1706.4" y="270.6727">builder</text></g><!--cluster command--><g id="cluster_command"><path d="M315.9,310.8082 L356.7,310.8082 A2.25,2.25 0 0 1 358.2,312.3082 L362.4,325.5809 L1688.1,325.5809 A1.5,1.5 0 0 1 1689.6,327.0809 L1689.6,543.9082 A1.5,1.5 0 0 1 1688.1,545.4082 L315.9,545.4082 A1.5,1.5 0 0 1 314.4,543.9082 L314.4,312.3082 A1.5,1.5 0 0 1 315.9,310.8082 " fill="none" style="stroke:#000000;stroke-width:0.8999999999999999;"/><line style="stroke:#000000;stroke-width:0.8999999999999999;" x1="314.4" x2="362.4" y1="325.5809" y2="325.5809"/><text fill="#000000" font-family="sans-serif" font-size="8.4" font-weight="bold" lengthAdjust="spacing" textLength="40.2" x="316.8" y="321.0727">command</text></g><!--cluster factory--><g id="cluster_factory"><path d="M904.5,565.2082 L933.9,565.2082 A2.25,2.25 0 0 1 935.4,566.7082 L939.6,579.9809 L1316.1,579.9809 A1.5,1.5 0 0 1 1317.6,581.4809 L1317.6,861.9082 A1.5,1.5 0 0 1 1316.1,863.4082 L904.5,863.4082 A1.5,1.5 0 0 1 903,861.9082 L903,566.7082 A1.5,1.5 0 0 1 904.5,565.2082 " fill="none" style="stroke:#000000;stroke-width:0.8999999999999999;"/><line style="stroke:#000000;stroke-width:0.8999999999999999;" x1="903" x2="939.6" y1="579.9809" y2="579.9809"/><text fill="#000000" font-family="sans-serif" font-size="8.4" font-weight="bold" lengthAdjust="spacing" textLength="28.8" x="905.4" y="575.4727">factory</text></g><!--cluster table--><g id="cluster_table"><path d="M19.5,277.2082 L41.1,277.2082 A2.25,2.25 0 0 1 42.6,278.7082 L46.8,291.9809 L284.1,291.9809 A1.5,1.5 0 0 1 285.6,293.4809 L285.6,648.3082 A1.5,1.5 0 0 1 284.1,649.8082 L19.5,649.8082 A1.5,1.5 0 0 1 18,648.3082 L18,278.7082 A1.5,1.5 0 0 1 19.5,277.2082 " fill="none" style="stroke:#000000;stroke-width:0.8999999999999999;"/><line style="stroke:#000000;stroke-width:0.8999999999999999;" x1="18" x2="46.8" y1="291.9809" y2="291.9809"/><text fill="#000000" font-family="sans-serif" font-size="8.4" font-weight="bold" lengthAdjust="spacing" textLength="21" x="20.4" y="287.4727">table</text></g><!--cluster wrapper--><g id="cluster_wrapper"><path d="M384.9,30.6082 L420.3,30.6082 A2.25,2.25 0 0 1 421.8,32.1082 L426,45.3809 L612.3,45.3809 A1.5,1.5 0 0 1 613.8,46.8809 L613.8,201.3082 A1.5,1.5 0 0 1 612.3,202.8082 L384.9,202.8082 A1.5,1.5 0 0 1 383.4,201.3082 L383.4,32.1082 A1.5,1.5 0 0 1 384.9,30.6082 " fill="none" style="stroke:#000000;stroke-width:0.8999999999999999;"/><line style="stroke:#000000;stroke-width:0.8999999999999999;" x1="383.4" x2="426" y1="45.3809" y2="45.3809"/><text fill="#000000" font-family="sans-serif" font-size="8.4" font-weight="bold" lengthAdjust="spacing" textLength="34.8" x="385.8" y="40.8727">wrapper</text></g><!--cluster service--><g id="cluster_service"><path d="M1068.9,36.3082 L1101.3,36.3082 A2.25,2.25 0 0 1 1102.8,37.8082 L1107,51.0809 L1356.3,51.0809 A1.5,1.5 0 0 1 1357.8,52.5809 L1357.8,130.2082 A1.5,1.5 0 0 1 1356.3,131.7082 L1068.9,131.7082 A1.5,1.5 0 0 1 1067.4,130.2082 L1067.4,37.8082 A1.5,1.5 0 0 1 1068.9,36.3082 " fill="none" style="stroke:#000000;stroke-width:0.8999999999999999;"/><line style="stroke:#000000;stroke-width:0.8999999999999999;" x1="1067.4" x2="1107" y1="51.0809" y2="51.0809"/><text fill="#000000" font-family="sans-serif" font-size="8.4" font-weight="bold" lengthAdjust="spacing" textLength="31.8" x="1069.8" y="46.5727">service</text></g><!--cluster firebase--><g id="cluster_firebase"><path d="M1945.5,310.8082 L1980.9,310.8082 A2.25,2.25 0 0 1 1982.4,312.3082 L1986.6,325.5809 L2181.3,325.5809 A1.5,1.5 0 0 1 2182.8,327.0809 L2182.8,648.3082 A1.5,1.5 0 0 1 2181.3,649.8082 L1945.5,649.8082 A1.5,1.5 0 0 1 1944,648.3082 L1944,312.3082 A1.5,1.5 0 0 1 1945.5,310.8082 " fill="none" style="stroke:#000000;stroke-width:0.8999999999999999;"/><line style="stroke:#000000;stroke-width:0.8999999999999999;" x1="1944" x2="1986.6" y1="325.5809" y2="325.5809"/><text fill="#000000" font-family="sans-serif" font-size="8.4" font-weight="bold" lengthAdjust="spacing" textLength="34.8" x="1946.4" y="321.0727">firebase</text></g><!--class TableListBuilder--><g id="elem_TableListBuilder"><rect codeLine="4" fill="#F1F1F1" height="151.6992" id="TableListBuilder" rx="1.5" ry="1.5" style="stroke:#181818;stroke-width:0.3;" width="191.4" x="1713.9" y="295.2082"/><ellipse cx="1776.45" cy="304.8082" fill="#ADD1B2" rx="6.6" ry="6.6" style="stroke:#181818;stroke-width:0.6;"/><path d="M1778.1094,302.3332 Q1778.2031,302.202 1778.3156,302.1363 Q1778.4281,302.0707 1778.5594,302.0707 Q1778.7844,302.0707 1778.925,302.2301 Q1779.0656,302.3801 1779.0656,302.7457 L1779.0656,303.6176 Q1779.0656,303.9832 1778.925,304.1426 Q1778.7844,304.302 1778.5594,304.302 Q1778.3531,304.302 1778.2313,304.1801 Q1778.1094,304.0676 1778.0438,303.7582 Q1778.0156,303.5426 1777.9031,303.4301 Q1777.7063,303.2051 1777.3406,303.0738 Q1776.975,302.9426 1776.6,302.9426 Q1776.1406,302.9426 1775.7563,303.1395 Q1775.3813,303.3363 1775.0813,303.7863 Q1774.7906,304.2363 1774.7906,304.8551 L1774.7906,305.5113 Q1774.7906,306.252 1775.325,306.7488 Q1775.8594,307.2363 1776.8156,307.2363 Q1777.3781,307.2363 1777.7719,307.0863 Q1778.0063,306.9926 1778.2594,306.7301 Q1778.4188,306.5707 1778.5031,306.5238 Q1778.5969,306.477 1778.7188,306.477 Q1778.9156,306.477 1779.0656,306.6363 Q1779.225,306.7863 1779.225,306.9926 Q1779.225,307.1988 1779.0188,307.4426 Q1778.7188,307.7895 1778.2406,307.9863 Q1777.5938,308.2582 1776.8156,308.2582 Q1775.9063,308.2582 1775.1844,307.8832 Q1774.5938,307.5832 1774.1812,306.9457 Q1773.7688,306.2988 1773.7688,305.5301 L1773.7688,304.8363 Q1773.7688,304.0395 1774.1344,303.3551 Q1774.5094,302.6613 1775.1656,302.2957 Q1775.8219,301.9207 1776.5625,301.9207 Q1777.0031,301.9207 1777.3875,302.0238 Q1777.7813,302.1176 1778.1094,302.3332 Z " fill="#000000"/><text fill="#000000" font-family="sans-serif" font-size="8.4" lengthAdjust="spacing" textLength="61.2" x="1788.75" y="308.2863">TableListBuilder</text><line style="stroke:#181818;stroke-width:0.3;" x1="1714.5" x2="1904.7" y1="314.4082" y2="314.4082"/><ellipse cx="1720.5" cy="323.2945" fill="none" rx="1.8" ry="1.8" style="stroke:#038048;stroke-width:0.6;"/><text fill="#000000" font-family="sans-serif" font-size="8.4" lengthAdjust="spacing" textLength="43.2" x="1725.9" y="325.8727">type: String</text><ellipse cx="1720.5" cy="334.4672" fill="none" rx="1.8" ry="1.8" style="stroke:#038048;stroke-width:0.6;"/><text fill="#000000" font-family="sans-serif" font-size="8.4" lengthAdjust="spacing" textLength="62.4" x="1725.9" y="337.0453">container: String</text><ellipse cx="1720.5" cy="345.6398" fill="none" rx="1.8" ry="1.8" style="stroke:#038048;stroke-width:0.6;"/><text fill="#000000" font-family="sans-serif" font-size="8.4" lengthAdjust="spacing" textLength="87.6" x="1725.9" y="348.218">columnNames: String[*]</text><ellipse cx="1720.5" cy="356.8125" fill="none" rx="1.8" ry="1.8" style="stroke:#038048;stroke-width:0.6;"/><text fill="#000000" font-family="sans-serif" font-size="8.4" lengthAdjust="spacing" textLength="52.2" x="1725.9" y="359.3906">rows: String[*]</text><text fill="#000000" font-family="sans-serif" font-size="8.4" lengthAdjust="spacing" textLength="2.4" x="1725.9" y="370.5633">&#160;</text><ellipse cx="1720.5" cy="379.1578" fill="none" rx="1.8" ry="1.8" style="stroke:#038048;stroke-width:0.6;"/><text fill="#000000" font-family="sans-serif" font-size="8.4" lengthAdjust="spacing" textLength="115.8" x="1725.9" y="381.7359">TableListBuilder &#171;constructor&#187;</text><line style="stroke:#181818;stroke-width:0.3;" x1="1714.5" x2="1904.7" y1="386.2441" y2="386.2441"/><ellipse cx="1720.5" cy="395.1305" fill="#84BE84" rx="1.8" ry="1.8" style="stroke:#038048;stroke-width:0.6;"/><text fill="#000000" font-family="sans-serif" font-size="8.4" lengthAdjust="spacing" textLength="97.8" x="1725.9" y="397.7086">setType(type: String): this</text><ellipse cx="1720.5" cy="406.3031" fill="#84BE84" rx="1.8" ry="1.8" style="stroke:#038048;stroke-width:0.6;"/><text fill="#000000" font-family="sans-serif" font-size="8.4" lengthAdjust="spacing" textLength="132.6" x="1725.9" y="408.8812">setContainer(container: String):this</text><ellipse cx="1720.5" cy="417.4758" fill="#84BE84" rx="1.8" ry="1.8" style="stroke:#038048;stroke-width:0.6;"/><text fill="#000000" font-family="sans-serif" font-size="8.4" lengthAdjust="spacing" textLength="175.8" x="1725.9" y="420.0539">setColumnNames(columnNAmes: String[*]):this</text><ellipse cx="1720.5" cy="428.6484" fill="#84BE84" rx="1.8" ry="1.8" style="stroke:#038048;stroke-width:0.6;"/><text fill="#000000" font-family="sans-serif" font-size="8.4" lengthAdjust="spacing" textLength="105.6" x="1725.9" y="431.2266">setRows(rows: String[*]):this</text><ellipse cx="1720.5" cy="439.8211" fill="#84BE84" rx="1.8" ry="1.8" style="stroke:#038048;stroke-width:0.6;"/><text fill="#000000" font-family="sans-serif" font-size="8.4" lengthAdjust="spacing" textLength="80.4" x="1725.9" y="442.3992">build():BaseTableList</text></g><!--class CommandBase--><g id="elem_CommandBase"><rect codeLine="45" fill="#F1F1F1" height="51.1453" id="CommandBase" rx="1.5" ry="1.5" style="stroke:#181818;stroke-width:0.3;" width="249" x="683.1" y="345.6082"/><ellipse cx="776.25" cy="355.2082" fill="#A9DCDF" rx="6.6" ry="6.6" style="stroke:#181818;stroke-width:0.6;"/><path d="M777.5625,356.2676 L775.0781,356.2676 L774.825,356.8863 L775.0781,356.8863 Q775.4438,356.8863 775.6031,357.027 Q775.7625,357.1676 775.7625,357.402 Q775.7625,357.627 775.6031,357.7676 Q775.4438,357.9082 775.0781,357.9082 L773.7,357.9082 Q773.3344,357.9082 773.1844,357.7676 Q773.025,357.627 773.025,357.3926 Q773.025,357.1676 773.1938,357.027 Q773.3531,356.877 773.7281,356.8863 L775.3313,352.8926 L774.6656,352.8926 Q774.3,352.8926 774.1406,352.752 Q773.9812,352.6113 773.9812,352.377 Q773.9812,352.152 774.1406,352.0113 Q774.3,351.8707 774.6656,351.8707 L776.8688,351.8707 L778.9031,356.8863 Q779.2594,356.8863 779.3719,356.9707 Q779.6062,357.1301 779.6062,357.402 Q779.6062,357.627 779.4469,357.7676 Q779.2969,357.9082 778.9313,357.9082 L777.5531,357.9082 Q777.1875,357.9082 777.0281,357.7676 Q776.8688,357.627 776.8688,357.3926 Q776.8688,357.1676 777.0281,357.027 Q777.1875,356.8863 777.5531,356.8863 L777.8063,356.8863 L777.5625,356.2676 Z M777.1313,355.2457 L776.3156,353.2207 L775.4906,355.2457 L777.1313,355.2457 Z " fill="#000000"/><text fill="#000000" font-family="sans-serif" font-size="8.4" font-style="italic" lengthAdjust="spacing" textLength="57.6" x="788.55" y="358.6863">CommandBase</text><line style="stroke:#181818;stroke-width:0.3;" x1="683.7" x2="931.5" y1="364.8082" y2="364.8082"/><line style="stroke:#181818;stroke-width:0.3;" x1="683.7" x2="931.5" y1="369.6082" y2="369.6082"/><ellipse cx="689.7" cy="378.4945" fill="#84BE84" rx="1.8" ry="1.8" style="stroke:#038048;stroke-width:0.6;"/><text fill="#000000" font-family="sans-serif" font-size="8.4" lengthAdjust="spacing" textLength="191.4" x="695.1" y="381.0727">CommandBase(eventTarget: String) &#171;constructor&#187;</text><ellipse cx="689.7" cy="389.6672" fill="#84BE84" rx="1.8" ry="1.8" style="stroke:#038048;stroke-width:0.6;"/><text fill="#000000" font-family="sans-serif" font-size="8.4" font-style="italic" lengthAdjust="spacing" textLength="233.4" x="695.1" y="392.2453">execute(tableContainer: String,btn: HTMLButtonElement):void</text></g><!--class DeleteTableTagCommand--><g id="elem_DeleteTableTagCommand"><rect codeLine="50" fill="#F1F1F1" height="28.8" id="DeleteTableTagCommand" rx="1.5" ry="1.5" style="stroke:#181818;stroke-width:0.3;" width="118.8" x="324" y="495.9082"/><ellipse cx="333" cy="505.5082" fill="#ADD1B2" rx="6.6" ry="6.6" style="stroke:#181818;stroke-width:0.6;"/><path d="M334.6594,503.0332 Q334.7531,502.902 334.8656,502.8363 Q334.9781,502.7707 335.1094,502.7707 Q335.3344,502.7707 335.475,502.9301 Q335.6156,503.0801 335.6156,503.4457 L335.6156,504.3176 Q335.6156,504.6832 335.475,504.8426 Q335.3344,505.002 335.1094,505.002 Q334.9031,505.002 334.7813,504.8801 Q334.6594,504.7676 334.5938,504.4582 Q334.5656,504.2426 334.4531,504.1301 Q334.2562,503.9051 333.8906,503.7738 Q333.525,503.6426 333.15,503.6426 Q332.6906,503.6426 332.3063,503.8395 Q331.9313,504.0363 331.6312,504.4863 Q331.3406,504.9363 331.3406,505.5551 L331.3406,506.2113 Q331.3406,506.952 331.875,507.4488 Q332.4094,507.9363 333.3656,507.9363 Q333.9281,507.9363 334.3219,507.7863 Q334.5563,507.6926 334.8094,507.4301 Q334.9688,507.2707 335.0531,507.2238 Q335.1469,507.177 335.2688,507.177 Q335.4656,507.177 335.6156,507.3363 Q335.775,507.4863 335.775,507.6926 Q335.775,507.8988 335.5687,508.1426 Q335.2688,508.4895 334.7906,508.6863 Q334.1438,508.9582 333.3656,508.9582 Q332.4563,508.9582 331.7344,508.5832 Q331.1438,508.2832 330.7313,507.6457 Q330.3187,506.9988 330.3187,506.2301 L330.3187,505.5363 Q330.3187,504.7395 330.6844,504.0551 Q331.0594,503.3613 331.7156,502.9957 Q332.3719,502.6207 333.1125,502.6207 Q333.5531,502.6207 333.9375,502.7238 Q334.3313,502.8176 334.6594,503.0332 Z " fill="#000000"/><text fill="#000000" font-family="sans-serif" font-size="8.4" lengthAdjust="spacing" textLength="99.6" x="341.4" y="508.9863">DeleteTableTagCommand</text><line style="stroke:#181818;stroke-width:0.3;" x1="324.6" x2="442.2" y1="515.1082" y2="515.1082"/><line style="stroke:#181818;stroke-width:0.3;" x1="324.6" x2="442.2" y1="519.9082" y2="519.9082"/></g><!--class DeleteTBodyCommand--><g id="elem_DeleteTBodyCommand"><rect codeLine="51" fill="#F1F1F1" height="28.8" id="DeleteTBodyCommand" rx="1.5" ry="1.5" style="stroke:#181818;stroke-width:0.3;" width="106.8" x="463.8" y="495.9082"/><ellipse cx="472.8" cy="505.5082" fill="#ADD1B2" rx="6.6" ry="6.6" style="stroke:#181818;stroke-width:0.6;"/><path d="M474.4594,503.0332 Q474.5531,502.902 474.6656,502.8363 Q474.7781,502.7707 474.9094,502.7707 Q475.1344,502.7707 475.275,502.9301 Q475.4156,503.0801 475.4156,503.4457 L475.4156,504.3176 Q475.4156,504.6832 475.275,504.8426 Q475.1344,505.002 474.9094,505.002 Q474.7031,505.002 474.5812,504.8801 Q474.4594,504.7676 474.3937,504.4582 Q474.3656,504.2426 474.2531,504.1301 Q474.0563,503.9051 473.6906,503.7738 Q473.325,503.6426 472.95,503.6426 Q472.4906,503.6426 472.1063,503.8395 Q471.7313,504.0363 471.4313,504.4863 Q471.1406,504.9363 471.1406,505.5551 L471.1406,506.2113 Q471.1406,506.952 471.675,507.4488 Q472.2094,507.9363 473.1656,507.9363 Q473.7281,507.9363 474.1219,507.7863 Q474.3563,507.6926 474.6094,507.4301 Q474.7687,507.2707 474.8531,507.2238 Q474.9469,507.177 475.0687,507.177 Q475.2656,507.177 475.4156,507.3363 Q475.575,507.4863 475.575,507.6926 Q475.575,507.8988 475.3688,508.1426 Q475.0687,508.4895 474.5906,508.6863 Q473.9437,508.9582 473.1656,508.9582 Q472.2562,508.9582 471.5344,508.5832 Q470.9437,508.2832 470.5313,507.6457 Q470.1188,506.9988 470.1188,506.2301 L470.1188,505.5363 Q470.1188,504.7395 470.4844,504.0551 Q470.8594,503.3613 471.5156,502.9957 Q472.1719,502.6207 472.9125,502.6207 Q473.3531,502.6207 473.7375,502.7238 Q474.1312,502.8176 474.4594,503.0332 Z " fill="#000000"/><text fill="#000000" font-family="sans-serif" font-size="8.4" lengthAdjust="spacing" textLength="87.6" x="481.2" y="508.9863">DeleteTBodyCommand</text><line style="stroke:#181818;stroke-width:0.3;" x1="464.4" x2="570" y1="515.1082" y2="515.1082"/><line style="stroke:#181818;stroke-width:0.3;" x1="464.4" x2="570" y1="519.9082" y2="519.9082"/></g><!--class AddTableInfo--><g id="elem_AddTableInfo"><rect codeLine="52" fill="#F1F1F1" height="28.8" id="AddTableInfo" rx="1.5" ry="1.5" style="stroke:#181818;stroke-width:0.3;" width="69.6" x="591.6" y="495.9082"/><ellipse cx="600.6" cy="505.5082" fill="#ADD1B2" rx="6.6" ry="6.6" style="stroke:#181818;stroke-width:0.6;"/><path d="M602.2594,503.0332 Q602.3531,502.902 602.4656,502.8363 Q602.5781,502.7707 602.7094,502.7707 Q602.9344,502.7707 603.075,502.9301 Q603.2156,503.0801 603.2156,503.4457 L603.2156,504.3176 Q603.2156,504.6832 603.075,504.8426 Q602.9344,505.002 602.7094,505.002 Q602.5031,505.002 602.3813,504.8801 Q602.2594,504.7676 602.1938,504.4582 Q602.1656,504.2426 602.0531,504.1301 Q601.8562,503.9051 601.4906,503.7738 Q601.125,503.6426 600.75,503.6426 Q600.2906,503.6426 599.9063,503.8395 Q599.5313,504.0363 599.2312,504.4863 Q598.9406,504.9363 598.9406,505.5551 L598.9406,506.2113 Q598.9406,506.952 599.475,507.4488 Q600.0094,507.9363 600.9656,507.9363 Q601.5281,507.9363 601.9219,507.7863 Q602.1563,507.6926 602.4094,507.4301 Q602.5688,507.2707 602.6531,507.2238 Q602.7469,507.177 602.8688,507.177 Q603.0656,507.177 603.2156,507.3363 Q603.375,507.4863 603.375,507.6926 Q603.375,507.8988 603.1687,508.1426 Q602.8688,508.4895 602.3906,508.6863 Q601.7438,508.9582 600.9656,508.9582 Q600.0563,508.9582 599.3344,508.5832 Q598.7438,508.2832 598.3313,507.6457 Q597.9187,506.9988 597.9187,506.2301 L597.9187,505.5363 Q597.9187,504.7395 598.2844,504.0551 Q598.6594,503.3613 599.3156,502.9957 Q599.9719,502.6207 600.7125,502.6207 Q601.1531,502.6207 601.5375,502.7238 Q601.9313,502.8176 602.2594,503.0332 Z " fill="#000000"/><text fill="#000000" font-family="sans-serif" font-size="8.4" lengthAdjust="spacing" textLength="50.4" x="609" y="508.9863">AddTableInfo</text><line style="stroke:#181818;stroke-width:0.3;" x1="592.2" x2="660.6" y1="515.1082" y2="515.1082"/><line style="stroke:#181818;stroke-width:0.3;" x1="592.2" x2="660.6" y1="519.9082" y2="519.9082"/></g><!--class CRUDCommand--><g id="elem_CRUDCommand"><rect codeLine="53" fill="#F1F1F1" height="28.8" id="CRUDCommand" rx="1.5" ry="1.5" style="stroke:#181818;stroke-width:0.3;" width="81" x="682.5" y="495.9082"/><ellipse cx="691.5" cy="505.5082" fill="#ADD1B2" rx="6.6" ry="6.6" style="stroke:#181818;stroke-width:0.6;"/><path d="M693.1594,503.0332 Q693.2531,502.902 693.3656,502.8363 Q693.4781,502.7707 693.6094,502.7707 Q693.8344,502.7707 693.975,502.9301 Q694.1156,503.0801 694.1156,503.4457 L694.1156,504.3176 Q694.1156,504.6832 693.975,504.8426 Q693.8344,505.002 693.6094,505.002 Q693.4031,505.002 693.2813,504.8801 Q693.1594,504.7676 693.0938,504.4582 Q693.0656,504.2426 692.9531,504.1301 Q692.7563,503.9051 692.3906,503.7738 Q692.025,503.6426 691.65,503.6426 Q691.1906,503.6426 690.8063,503.8395 Q690.4313,504.0363 690.1313,504.4863 Q689.8406,504.9363 689.8406,505.5551 L689.8406,506.2113 Q689.8406,506.952 690.375,507.4488 Q690.9094,507.9363 691.8656,507.9363 Q692.4281,507.9363 692.8219,507.7863 Q693.0563,507.6926 693.3094,507.4301 Q693.4688,507.2707 693.5531,507.2238 Q693.6469,507.177 693.7688,507.177 Q693.9656,507.177 694.1156,507.3363 Q694.275,507.4863 694.275,507.6926 Q694.275,507.8988 694.0688,508.1426 Q693.7688,508.4895 693.2906,508.6863 Q692.6438,508.9582 691.8656,508.9582 Q690.9563,508.9582 690.2344,508.5832 Q689.6438,508.2832 689.2312,507.6457 Q688.8188,506.9988 688.8188,506.2301 L688.8188,505.5363 Q688.8188,504.7395 689.1844,504.0551 Q689.5594,503.3613 690.2156,502.9957 Q690.8719,502.6207 691.6125,502.6207 Q692.0531,502.6207 692.4375,502.7238 Q692.8313,502.8176 693.1594,503.0332 Z " fill="#000000"/><text fill="#000000" font-family="sans-serif" font-size="8.4" lengthAdjust="spacing" textLength="61.8" x="699.9" y="508.9863">CRUDCommand</text><line style="stroke:#181818;stroke-width:0.3;" x1="683.1" x2="762.9" y1="515.1082" y2="515.1082"/><line style="stroke:#181818;stroke-width:0.3;" x1="683.1" x2="762.9" y1="519.9082" y2="519.9082"/></g><!--class EnableDragAndDrop--><g id="elem_EnableDragAndDrop"><rect codeLine="55" fill="#F1F1F1" height="51.1453" id="EnableDragAndDrop" rx="1.5" ry="1.5" style="stroke:#181818;stroke-width:0.3;" width="325.8" x="784.5" y="484.8082"/><ellipse cx="905.55" cy="494.4082" fill="#ADD1B2" rx="6.6" ry="6.6" style="stroke:#181818;stroke-width:0.6;"/><path d="M907.2094,491.9332 Q907.3031,491.802 907.4156,491.7363 Q907.5281,491.6707 907.6594,491.6707 Q907.8844,491.6707 908.025,491.8301 Q908.1656,491.9801 908.1656,492.3457 L908.1656,493.2176 Q908.1656,493.5832 908.025,493.7426 Q907.8844,493.902 907.6594,493.902 Q907.4531,493.902 907.3313,493.7801 Q907.2094,493.6676 907.1438,493.3582 Q907.1156,493.1426 907.0031,493.0301 Q906.8063,492.8051 906.4406,492.6738 Q906.075,492.5426 905.7,492.5426 Q905.2406,492.5426 904.8562,492.7395 Q904.4812,492.9363 904.1813,493.3863 Q903.8906,493.8363 903.8906,494.4551 L903.8906,495.1113 Q903.8906,495.852 904.425,496.3488 Q904.9594,496.8363 905.9156,496.8363 Q906.4781,496.8363 906.8719,496.6863 Q907.1062,496.5926 907.3594,496.3301 Q907.5188,496.1707 907.6031,496.1238 Q907.6969,496.077 907.8188,496.077 Q908.0156,496.077 908.1656,496.2363 Q908.325,496.3863 908.325,496.5926 Q908.325,496.7988 908.1188,497.0426 Q907.8188,497.3895 907.3406,497.5863 Q906.6938,497.8582 905.9156,497.8582 Q905.0063,497.8582 904.2844,497.4832 Q903.6938,497.1832 903.2813,496.5457 Q902.8688,495.8988 902.8688,495.1301 L902.8688,494.4363 Q902.8688,493.6395 903.2344,492.9551 Q903.6094,492.2613 904.2656,491.8957 Q904.9219,491.5207 905.6625,491.5207 Q906.1031,491.5207 906.4875,491.6238 Q906.8813,491.7176 907.2094,491.9332 Z " fill="#000000"/><text fill="#000000" font-family="sans-serif" font-size="8.4" lengthAdjust="spacing" textLength="78.6" x="917.85" y="497.8863">EnableDragAndDrop</text><line style="stroke:#181818;stroke-width:0.3;" x1="785.1" x2="1109.7" y1="504.0082" y2="504.0082"/><line style="stroke:#181818;stroke-width:0.3;" x1="785.1" x2="1109.7" y1="508.8082" y2="508.8082"/><ellipse cx="791.1" cy="517.6945" fill="#84BE84" rx="1.8" ry="1.8" style="stroke:#038048;stroke-width:0.6;"/><text fill="#000000" font-family="sans-serif" font-size="8.4" lengthAdjust="spacing" textLength="310.2" x="796.5" y="520.2727">enableDragAndDrop(rows: HTMLElement, tbody:HTMLTableSectionElement): void</text><ellipse cx="791.1" cy="528.8672" fill="#84BE84" rx="1.8" ry="1.8" style="stroke:#038048;stroke-width:0.6;"/><text fill="#000000" font-family="sans-serif" font-size="8.4" lengthAdjust="spacing" textLength="210.6" x="796.5" y="531.4453">addPopoverTriggerEl(popoverTriggerEl: HTMLElement)</text></g><!--class AddTableRowCommand--><g id="elem_AddTableRowCommand"><rect codeLine="59" fill="#F1F1F1" height="39.9727" id="AddTableRowCommand" rx="1.5" ry="1.5" style="stroke:#181818;stroke-width:0.3;" width="170.4" x="1131.6" y="490.2082"/><ellipse cx="1168.65" cy="499.8082" fill="#ADD1B2" rx="6.6" ry="6.6" style="stroke:#181818;stroke-width:0.6;"/><path d="M1170.3094,497.3332 Q1170.4031,497.202 1170.5156,497.1363 Q1170.6281,497.0707 1170.7594,497.0707 Q1170.9844,497.0707 1171.125,497.2301 Q1171.2656,497.3801 1171.2656,497.7457 L1171.2656,498.6176 Q1171.2656,498.9832 1171.125,499.1426 Q1170.9844,499.302 1170.7594,499.302 Q1170.5531,499.302 1170.4312,499.1801 Q1170.3094,499.0676 1170.2437,498.7582 Q1170.2156,498.5426 1170.1031,498.4301 Q1169.9063,498.2051 1169.5406,498.0738 Q1169.175,497.9426 1168.8,497.9426 Q1168.3406,497.9426 1167.9563,498.1395 Q1167.5813,498.3363 1167.2813,498.7863 Q1166.9906,499.2363 1166.9906,499.8551 L1166.9906,500.5113 Q1166.9906,501.252 1167.525,501.7488 Q1168.0594,502.2363 1169.0156,502.2363 Q1169.5781,502.2363 1169.9719,502.0863 Q1170.2063,501.9926 1170.4594,501.7301 Q1170.6187,501.5707 1170.7031,501.5238 Q1170.7969,501.477 1170.9188,501.477 Q1171.1156,501.477 1171.2656,501.6363 Q1171.425,501.7863 1171.425,501.9926 Q1171.425,502.1988 1171.2188,502.4426 Q1170.9188,502.7895 1170.4406,502.9863 Q1169.7938,503.2582 1169.0156,503.2582 Q1168.1063,503.2582 1167.3844,502.8832 Q1166.7938,502.5832 1166.3813,501.9457 Q1165.9688,501.2988 1165.9688,500.5301 L1165.9688,499.8363 Q1165.9688,499.0395 1166.3344,498.3551 Q1166.7094,497.6613 1167.3656,497.2957 Q1168.0219,496.9207 1168.7625,496.9207 Q1169.2031,496.9207 1169.5875,497.0238 Q1169.9813,497.1176 1170.3094,497.3332 Z " fill="#000000"/><text fill="#000000" font-family="sans-serif" font-size="8.4" lengthAdjust="spacing" textLength="91.2" x="1180.95" y="503.2863">AddTableRowCommand</text><line style="stroke:#181818;stroke-width:0.3;" x1="1132.2" x2="1301.4" y1="509.4082" y2="509.4082"/><line style="stroke:#181818;stroke-width:0.3;" x1="1132.2" x2="1301.4" y1="514.2082" y2="514.2082"/><rect fill="#F24D5C" height="3.6" style="stroke:#C82930;stroke-width:0.6;" width="3.6" x="1136.4" y="521.2945"/><text fill="#000000" font-family="sans-serif" font-size="8.4" lengthAdjust="spacing" textLength="154.8" x="1143.6" y="525.6727">setCopiedRow(table: HTMLElement):void</text></g><!--class HolidayDecoratorCommand--><g id="elem_HolidayDecoratorCommand"><rect codeLine="63" fill="#F1F1F1" height="39.9727" id="HolidayDecoratorCommand" rx="1.5" ry="1.5" style="stroke:#181818;stroke-width:0.3;" width="213" x="1323.3" y="490.2082"/><ellipse cx="1375.35" cy="499.8082" fill="#ADD1B2" rx="6.6" ry="6.6" style="stroke:#181818;stroke-width:0.6;"/><path d="M1377.0094,497.3332 Q1377.1031,497.202 1377.2156,497.1363 Q1377.3281,497.0707 1377.4594,497.0707 Q1377.6844,497.0707 1377.825,497.2301 Q1377.9656,497.3801 1377.9656,497.7457 L1377.9656,498.6176 Q1377.9656,498.9832 1377.825,499.1426 Q1377.6844,499.302 1377.4594,499.302 Q1377.2531,499.302 1377.1313,499.1801 Q1377.0094,499.0676 1376.9438,498.7582 Q1376.9156,498.5426 1376.8031,498.4301 Q1376.6063,498.2051 1376.2406,498.0738 Q1375.875,497.9426 1375.5,497.9426 Q1375.0406,497.9426 1374.6563,498.1395 Q1374.2813,498.3363 1373.9813,498.7863 Q1373.6906,499.2363 1373.6906,499.8551 L1373.6906,500.5113 Q1373.6906,501.252 1374.225,501.7488 Q1374.7594,502.2363 1375.7156,502.2363 Q1376.2781,502.2363 1376.6719,502.0863 Q1376.9063,501.9926 1377.1594,501.7301 Q1377.3188,501.5707 1377.4031,501.5238 Q1377.4969,501.477 1377.6187,501.477 Q1377.8156,501.477 1377.9656,501.6363 Q1378.125,501.7863 1378.125,501.9926 Q1378.125,502.1988 1377.9188,502.4426 Q1377.6187,502.7895 1377.1406,502.9863 Q1376.4937,503.2582 1375.7156,503.2582 Q1374.8062,503.2582 1374.0844,502.8832 Q1373.4937,502.5832 1373.0813,501.9457 Q1372.6688,501.2988 1372.6688,500.5301 L1372.6688,499.8363 Q1372.6688,499.0395 1373.0344,498.3551 Q1373.4094,497.6613 1374.0656,497.2957 Q1374.7219,496.9207 1375.4625,496.9207 Q1375.9031,496.9207 1376.2875,497.0238 Q1376.6812,497.1176 1377.0094,497.3332 Z " fill="#000000"/><text fill="#000000" font-family="sans-serif" font-size="8.4" lengthAdjust="spacing" textLength="103.8" x="1387.65" y="503.2863">HolidayDecoratorCommand</text><line style="stroke:#181818;stroke-width:0.3;" x1="1323.9" x2="1535.7" y1="509.4082" y2="509.4082"/><line style="stroke:#181818;stroke-width:0.3;" x1="1323.9" x2="1535.7" y1="514.2082" y2="514.2082"/><rect fill="#F24D5C" height="3.6" style="stroke:#C82930;stroke-width:0.6;" width="3.6" x="1328.1" y="521.2945"/><text fill="#000000" font-family="sans-serif" font-size="8.4" lengthAdjust="spacing" textLength="197.4" x="1335.3" y="525.6727">setTDElements(tableContainer: HTMLElement): void</text></g><!--class createTdInputEleCommand--><g id="elem_createTdInputEleCommand"><rect codeLine="66" fill="#F1F1F1" height="28.8" id="createTdInputEleCommand" rx="1.5" ry="1.5" style="stroke:#181818;stroke-width:0.3;" width="122.4" x="1557.6" y="495.9082"/><ellipse cx="1566.6" cy="505.5082" fill="#ADD1B2" rx="6.6" ry="6.6" style="stroke:#181818;stroke-width:0.6;"/><path d="M1568.2594,503.0332 Q1568.3531,502.902 1568.4656,502.8363 Q1568.5781,502.7707 1568.7094,502.7707 Q1568.9344,502.7707 1569.075,502.9301 Q1569.2156,503.0801 1569.2156,503.4457 L1569.2156,504.3176 Q1569.2156,504.6832 1569.075,504.8426 Q1568.9344,505.002 1568.7094,505.002 Q1568.5031,505.002 1568.3813,504.8801 Q1568.2594,504.7676 1568.1938,504.4582 Q1568.1656,504.2426 1568.0531,504.1301 Q1567.8563,503.9051 1567.4906,503.7738 Q1567.125,503.6426 1566.75,503.6426 Q1566.2906,503.6426 1565.9063,503.8395 Q1565.5313,504.0363 1565.2313,504.4863 Q1564.9406,504.9363 1564.9406,505.5551 L1564.9406,506.2113 Q1564.9406,506.952 1565.475,507.4488 Q1566.0094,507.9363 1566.9656,507.9363 Q1567.5281,507.9363 1567.9219,507.7863 Q1568.1563,507.6926 1568.4094,507.4301 Q1568.5688,507.2707 1568.6531,507.2238 Q1568.7469,507.177 1568.8687,507.177 Q1569.0656,507.177 1569.2156,507.3363 Q1569.375,507.4863 1569.375,507.6926 Q1569.375,507.8988 1569.1688,508.1426 Q1568.8687,508.4895 1568.3906,508.6863 Q1567.7437,508.9582 1566.9656,508.9582 Q1566.0562,508.9582 1565.3344,508.5832 Q1564.7437,508.2832 1564.3313,507.6457 Q1563.9188,506.9988 1563.9188,506.2301 L1563.9188,505.5363 Q1563.9188,504.7395 1564.2844,504.0551 Q1564.6594,503.3613 1565.3156,502.9957 Q1565.9719,502.6207 1566.7125,502.6207 Q1567.1531,502.6207 1567.5375,502.7238 Q1567.9312,502.8176 1568.2594,503.0332 Z " fill="#000000"/><text fill="#000000" font-family="sans-serif" font-size="8.4" lengthAdjust="spacing" textLength="103.2" x="1575" y="508.9863">createTdInputEleCommand</text><line style="stroke:#181818;stroke-width:0.3;" x1="1558.2" x2="1679.4" y1="515.1082" y2="515.1082"/><line style="stroke:#181818;stroke-width:0.3;" x1="1558.2" x2="1679.4" y1="519.9082" y2="519.9082"/></g><!--class ButtonBase--><g id="elem_ButtonBase"><rect codeLine="75" fill="#F1F1F1" height="62.318" id="ButtonBase" rx="1.5" ry="1.5" style="stroke:#181818;stroke-width:0.3;" width="238.2" x="994.5" y="726.0082"/><ellipse cx="1089.15" cy="735.6082" fill="#ADD1B2" rx="6.6" ry="6.6" style="stroke:#181818;stroke-width:0.6;"/><path d="M1090.8094,733.1332 Q1090.9031,733.002 1091.0156,732.9363 Q1091.1281,732.8707 1091.2594,732.8707 Q1091.4844,732.8707 1091.625,733.0301 Q1091.7656,733.1801 1091.7656,733.5457 L1091.7656,734.4176 Q1091.7656,734.7832 1091.625,734.9426 Q1091.4844,735.102 1091.2594,735.102 Q1091.0531,735.102 1090.9312,734.9801 Q1090.8094,734.8676 1090.7437,734.5582 Q1090.7156,734.3426 1090.6031,734.2301 Q1090.4063,734.0051 1090.0406,733.8738 Q1089.675,733.7426 1089.3,733.7426 Q1088.8406,733.7426 1088.4563,733.9395 Q1088.0813,734.1363 1087.7813,734.5863 Q1087.4906,735.0363 1087.4906,735.6551 L1087.4906,736.3113 Q1087.4906,737.052 1088.025,737.5488 Q1088.5594,738.0363 1089.5156,738.0363 Q1090.0781,738.0363 1090.4719,737.8863 Q1090.7063,737.7926 1090.9594,737.5301 Q1091.1187,737.3707 1091.2031,737.3238 Q1091.2969,737.277 1091.4188,737.277 Q1091.6156,737.277 1091.7656,737.4363 Q1091.925,737.5863 1091.925,737.7926 Q1091.925,737.9988 1091.7188,738.2426 Q1091.4188,738.5895 1090.9406,738.7863 Q1090.2938,739.0582 1089.5156,739.0582 Q1088.6063,739.0582 1087.8844,738.6832 Q1087.2938,738.3832 1086.8813,737.7457 Q1086.4688,737.0988 1086.4688,736.3301 L1086.4688,735.6363 Q1086.4688,734.8395 1086.8344,734.1551 Q1087.2094,733.4613 1087.8656,733.0957 Q1088.5219,732.7207 1089.2625,732.7207 Q1089.7031,732.7207 1090.0875,732.8238 Q1090.4813,732.9176 1090.8094,733.1332 Z " fill="#000000"/><text fill="#000000" font-family="sans-serif" font-size="8.4" lengthAdjust="spacing" textLength="43.8" x="1101.45" y="739.0863">ButtonBase</text><line style="stroke:#181818;stroke-width:0.3;" x1="995.1" x2="1232.1" y1="745.2082" y2="745.2082"/><ellipse cx="1001.1" cy="754.0945" fill="none" rx="1.8" ry="1.8" style="stroke:#038048;stroke-width:0.6;"/><text fill="#000000" font-family="sans-serif" font-size="8.4" lengthAdjust="spacing" textLength="93.6" x="1006.5" y="756.6727">ele: HTMLButtonElement</text><line style="stroke:#181818;stroke-width:0.3;" x1="995.1" x2="1232.1" y1="761.1809" y2="761.1809"/><ellipse cx="1001.1" cy="770.0672" fill="#84BE84" rx="1.8" ry="1.8" style="stroke:#038048;stroke-width:0.6;"/><text fill="#000000" font-family="sans-serif" font-size="8.4" lengthAdjust="spacing" textLength="147.6" x="1006.5" y="772.6453">ButtonBase(type: String) &#171;constructor&#187;</text><ellipse cx="1001.1" cy="781.2398" fill="#84BE84" rx="1.8" ry="1.8" style="stroke:#038048;stroke-width:0.6;"/><text fill="#000000" font-family="sans-serif" font-size="8.4" lengthAdjust="spacing" textLength="222.6" x="1006.5" y="783.818">addIcon(btn: HTMLButtonElement, classList: String[*]): void</text></g><!--class DeleteButton--><g id="elem_DeleteButton"><rect codeLine="81" fill="#F1F1F1" height="28.8" id="DeleteButton" rx="1.5" ry="1.5" style="stroke:#181818;stroke-width:0.3;" width="68.4" x="912.6" y="825.0082"/><ellipse cx="921.6" cy="834.6082" fill="#ADD1B2" rx="6.6" ry="6.6" style="stroke:#181818;stroke-width:0.6;"/><path d="M923.2594,832.1332 Q923.3531,832.002 923.4656,831.9363 Q923.5781,831.8707 923.7094,831.8707 Q923.9344,831.8707 924.075,832.0301 Q924.2156,832.1801 924.2156,832.5457 L924.2156,833.4176 Q924.2156,833.7832 924.075,833.9426 Q923.9344,834.102 923.7094,834.102 Q923.5031,834.102 923.3812,833.9801 Q923.2594,833.8676 923.1937,833.5582 Q923.1656,833.3426 923.0531,833.2301 Q922.8562,833.0051 922.4906,832.8738 Q922.125,832.7426 921.75,832.7426 Q921.2906,832.7426 920.9063,832.9395 Q920.5313,833.1363 920.2312,833.5863 Q919.9406,834.0363 919.9406,834.6551 L919.9406,835.3113 Q919.9406,836.052 920.475,836.5488 Q921.0094,837.0363 921.9656,837.0363 Q922.5281,837.0363 922.9219,836.8863 Q923.1563,836.7926 923.4094,836.5301 Q923.5687,836.3707 923.6531,836.3238 Q923.7469,836.277 923.8688,836.277 Q924.0656,836.277 924.2156,836.4363 Q924.375,836.5863 924.375,836.7926 Q924.375,836.9988 924.1687,837.2426 Q923.8688,837.5895 923.3906,837.7863 Q922.7438,838.0582 921.9656,838.0582 Q921.0563,838.0582 920.3344,837.6832 Q919.7438,837.3832 919.3313,836.7457 Q918.9187,836.0988 918.9187,835.3301 L918.9187,834.6363 Q918.9187,833.8395 919.2844,833.1551 Q919.6594,832.4613 920.3156,832.0957 Q920.9719,831.7207 921.7125,831.7207 Q922.1531,831.7207 922.5375,831.8238 Q922.9313,831.9176 923.2594,832.1332 Z " fill="#000000"/><text fill="#000000" font-family="sans-serif" font-size="8.4" lengthAdjust="spacing" textLength="49.2" x="930" y="838.0863">DeleteButton</text><line style="stroke:#181818;stroke-width:0.3;" x1="913.2" x2="980.4" y1="844.2082" y2="844.2082"/><line style="stroke:#181818;stroke-width:0.3;" x1="913.2" x2="980.4" y1="849.0082" y2="849.0082"/></g><!--class AddButton--><g id="elem_AddButton"><rect codeLine="82" fill="#F1F1F1" height="28.8" id="AddButton" rx="1.5" ry="1.5" style="stroke:#181818;stroke-width:0.3;" width="58.8" x="1002" y="825.0082"/><ellipse cx="1011" cy="834.6082" fill="#ADD1B2" rx="6.6" ry="6.6" style="stroke:#181818;stroke-width:0.6;"/><path d="M1012.6594,832.1332 Q1012.7531,832.002 1012.8656,831.9363 Q1012.9781,831.8707 1013.1094,831.8707 Q1013.3344,831.8707 1013.475,832.0301 Q1013.6156,832.1801 1013.6156,832.5457 L1013.6156,833.4176 Q1013.6156,833.7832 1013.475,833.9426 Q1013.3344,834.102 1013.1094,834.102 Q1012.9031,834.102 1012.7813,833.9801 Q1012.6594,833.8676 1012.5938,833.5582 Q1012.5656,833.3426 1012.4531,833.2301 Q1012.2562,833.0051 1011.8906,832.8738 Q1011.525,832.7426 1011.15,832.7426 Q1010.6906,832.7426 1010.3063,832.9395 Q1009.9313,833.1363 1009.6312,833.5863 Q1009.3406,834.0363 1009.3406,834.6551 L1009.3406,835.3113 Q1009.3406,836.052 1009.875,836.5488 Q1010.4094,837.0363 1011.3656,837.0363 Q1011.9281,837.0363 1012.3219,836.8863 Q1012.5563,836.7926 1012.8094,836.5301 Q1012.9688,836.3707 1013.0531,836.3238 Q1013.1469,836.277 1013.2688,836.277 Q1013.4656,836.277 1013.6156,836.4363 Q1013.775,836.5863 1013.775,836.7926 Q1013.775,836.9988 1013.5687,837.2426 Q1013.2688,837.5895 1012.7906,837.7863 Q1012.1438,838.0582 1011.3656,838.0582 Q1010.4563,838.0582 1009.7344,837.6832 Q1009.1438,837.3832 1008.7312,836.7457 Q1008.3187,836.0988 1008.3187,835.3301 L1008.3187,834.6363 Q1008.3187,833.8395 1008.6844,833.1551 Q1009.0594,832.4613 1009.7156,832.0957 Q1010.3719,831.7207 1011.1125,831.7207 Q1011.5531,831.7207 1011.9375,831.8238 Q1012.3313,831.9176 1012.6594,832.1332 Z " fill="#000000"/><text fill="#000000" font-family="sans-serif" font-size="8.4" lengthAdjust="spacing" textLength="39.6" x="1019.4" y="838.0863">AddButton</text><line style="stroke:#181818;stroke-width:0.3;" x1="1002.6" x2="1060.2" y1="844.2082" y2="844.2082"/><line style="stroke:#181818;stroke-width:0.3;" x1="1002.6" x2="1060.2" y1="849.0082" y2="849.0082"/></g><!--class SaveButton--><g id="elem_SaveButton"><rect codeLine="83" fill="#F1F1F1" height="28.8" id="SaveButton" rx="1.5" ry="1.5" style="stroke:#181818;stroke-width:0.3;" width="63" x="1082.1" y="825.0082"/><ellipse cx="1091.1" cy="834.6082" fill="#ADD1B2" rx="6.6" ry="6.6" style="stroke:#181818;stroke-width:0.6;"/><path d="M1092.7594,832.1332 Q1092.8531,832.002 1092.9656,831.9363 Q1093.0781,831.8707 1093.2094,831.8707 Q1093.4344,831.8707 1093.575,832.0301 Q1093.7156,832.1801 1093.7156,832.5457 L1093.7156,833.4176 Q1093.7156,833.7832 1093.575,833.9426 Q1093.4344,834.102 1093.2094,834.102 Q1093.0031,834.102 1092.8813,833.9801 Q1092.7594,833.8676 1092.6938,833.5582 Q1092.6656,833.3426 1092.5531,833.2301 Q1092.3563,833.0051 1091.9906,832.8738 Q1091.625,832.7426 1091.25,832.7426 Q1090.7906,832.7426 1090.4063,832.9395 Q1090.0313,833.1363 1089.7313,833.5863 Q1089.4406,834.0363 1089.4406,834.6551 L1089.4406,835.3113 Q1089.4406,836.052 1089.975,836.5488 Q1090.5094,837.0363 1091.4656,837.0363 Q1092.0281,837.0363 1092.4219,836.8863 Q1092.6563,836.7926 1092.9094,836.5301 Q1093.0688,836.3707 1093.1531,836.3238 Q1093.2469,836.277 1093.3687,836.277 Q1093.5656,836.277 1093.7156,836.4363 Q1093.875,836.5863 1093.875,836.7926 Q1093.875,836.9988 1093.6688,837.2426 Q1093.3687,837.5895 1092.8906,837.7863 Q1092.2437,838.0582 1091.4656,838.0582 Q1090.5562,838.0582 1089.8344,837.6832 Q1089.2437,837.3832 1088.8313,836.7457 Q1088.4188,836.0988 1088.4188,835.3301 L1088.4188,834.6363 Q1088.4188,833.8395 1088.7844,833.1551 Q1089.1594,832.4613 1089.8156,832.0957 Q1090.4719,831.7207 1091.2125,831.7207 Q1091.6531,831.7207 1092.0375,831.8238 Q1092.4312,831.9176 1092.7594,832.1332 Z " fill="#000000"/><text fill="#000000" font-family="sans-serif" font-size="8.4" lengthAdjust="spacing" textLength="43.8" x="1099.5" y="838.0863">SaveButton</text><line style="stroke:#181818;stroke-width:0.3;" x1="1082.7" x2="1144.5" y1="844.2082" y2="844.2082"/><line style="stroke:#181818;stroke-width:0.3;" x1="1082.7" x2="1144.5" y1="849.0082" y2="849.0082"/></g><!--class LoadButton--><g id="elem_LoadButton"><rect codeLine="84" fill="#F1F1F1" height="28.8" id="LoadButton" rx="1.5" ry="1.5" style="stroke:#181818;stroke-width:0.3;" width="63" x="1166.1" y="825.0082"/><ellipse cx="1175.1" cy="834.6082" fill="#ADD1B2" rx="6.6" ry="6.6" style="stroke:#181818;stroke-width:0.6;"/><path d="M1176.7594,832.1332 Q1176.8531,832.002 1176.9656,831.9363 Q1177.0781,831.8707 1177.2094,831.8707 Q1177.4344,831.8707 1177.575,832.0301 Q1177.7156,832.1801 1177.7156,832.5457 L1177.7156,833.4176 Q1177.7156,833.7832 1177.575,833.9426 Q1177.4344,834.102 1177.2094,834.102 Q1177.0031,834.102 1176.8813,833.9801 Q1176.7594,833.8676 1176.6938,833.5582 Q1176.6656,833.3426 1176.5531,833.2301 Q1176.3563,833.0051 1175.9906,832.8738 Q1175.625,832.7426 1175.25,832.7426 Q1174.7906,832.7426 1174.4063,832.9395 Q1174.0313,833.1363 1173.7313,833.5863 Q1173.4406,834.0363 1173.4406,834.6551 L1173.4406,835.3113 Q1173.4406,836.052 1173.975,836.5488 Q1174.5094,837.0363 1175.4656,837.0363 Q1176.0281,837.0363 1176.4219,836.8863 Q1176.6563,836.7926 1176.9094,836.5301 Q1177.0688,836.3707 1177.1531,836.3238 Q1177.2469,836.277 1177.3687,836.277 Q1177.5656,836.277 1177.7156,836.4363 Q1177.875,836.5863 1177.875,836.7926 Q1177.875,836.9988 1177.6688,837.2426 Q1177.3687,837.5895 1176.8906,837.7863 Q1176.2437,838.0582 1175.4656,838.0582 Q1174.5562,838.0582 1173.8344,837.6832 Q1173.2437,837.3832 1172.8313,836.7457 Q1172.4188,836.0988 1172.4188,835.3301 L1172.4188,834.6363 Q1172.4188,833.8395 1172.7844,833.1551 Q1173.1594,832.4613 1173.8156,832.0957 Q1174.4719,831.7207 1175.2125,831.7207 Q1175.6531,831.7207 1176.0375,831.8238 Q1176.4312,831.9176 1176.7594,832.1332 Z " fill="#000000"/><text fill="#000000" font-family="sans-serif" font-size="8.4" lengthAdjust="spacing" textLength="43.8" x="1183.5" y="838.0863">LoadButton</text><line style="stroke:#181818;stroke-width:0.3;" x1="1166.7" x2="1228.5" y1="844.2082" y2="844.2082"/><line style="stroke:#181818;stroke-width:0.3;" x1="1166.7" x2="1228.5" y1="849.0082" y2="849.0082"/></g><!--class InfoButton--><g id="elem_InfoButton"><rect codeLine="85" fill="#F1F1F1" height="28.8" id="InfoButton" rx="1.5" ry="1.5" style="stroke:#181818;stroke-width:0.3;" width="57.6" x="1250.4" y="825.0082"/><ellipse cx="1259.4" cy="834.6082" fill="#ADD1B2" rx="6.6" ry="6.6" style="stroke:#181818;stroke-width:0.6;"/><path d="M1261.0594,832.1332 Q1261.1531,832.002 1261.2656,831.9363 Q1261.3781,831.8707 1261.5094,831.8707 Q1261.7344,831.8707 1261.875,832.0301 Q1262.0156,832.1801 1262.0156,832.5457 L1262.0156,833.4176 Q1262.0156,833.7832 1261.875,833.9426 Q1261.7344,834.102 1261.5094,834.102 Q1261.3031,834.102 1261.1812,833.9801 Q1261.0594,833.8676 1260.9937,833.5582 Q1260.9656,833.3426 1260.8531,833.2301 Q1260.6563,833.0051 1260.2906,832.8738 Q1259.925,832.7426 1259.55,832.7426 Q1259.0906,832.7426 1258.7063,832.9395 Q1258.3313,833.1363 1258.0313,833.5863 Q1257.7406,834.0363 1257.7406,834.6551 L1257.7406,835.3113 Q1257.7406,836.052 1258.275,836.5488 Q1258.8094,837.0363 1259.7656,837.0363 Q1260.3281,837.0363 1260.7219,836.8863 Q1260.9563,836.7926 1261.2094,836.5301 Q1261.3687,836.3707 1261.4531,836.3238 Q1261.5469,836.277 1261.6688,836.277 Q1261.8656,836.277 1262.0156,836.4363 Q1262.175,836.5863 1262.175,836.7926 Q1262.175,836.9988 1261.9688,837.2426 Q1261.6688,837.5895 1261.1906,837.7863 Q1260.5438,838.0582 1259.7656,838.0582 Q1258.8563,838.0582 1258.1344,837.6832 Q1257.5438,837.3832 1257.1313,836.7457 Q1256.7188,836.0988 1256.7188,835.3301 L1256.7188,834.6363 Q1256.7188,833.8395 1257.0844,833.1551 Q1257.4594,832.4613 1258.1156,832.0957 Q1258.7719,831.7207 1259.5125,831.7207 Q1259.9531,831.7207 1260.3375,831.8238 Q1260.7313,831.9176 1261.0594,832.1332 Z " fill="#000000"/><text fill="#000000" font-family="sans-serif" font-size="8.4" lengthAdjust="spacing" textLength="38.4" x="1267.8" y="838.0863">InfoButton</text><line style="stroke:#181818;stroke-width:0.3;" x1="1251" x2="1307.4" y1="844.2082" y2="844.2082"/><line style="stroke:#181818;stroke-width:0.3;" x1="1251" x2="1307.4" y1="849.0082" y2="849.0082"/></g><!--class CreateButtonFactory--><g id="elem_CreateButtonFactory"><rect codeLine="87" fill="#F1F1F1" height="39.9727" id="CreateButtonFactory" rx="1.5" ry="1.5" style="stroke:#181818;stroke-width:0.3;" width="162" x="1032.6" y="600.0082"/><ellipse cx="1071.45" cy="609.6082" fill="#ADD1B2" rx="6.6" ry="6.6" style="stroke:#181818;stroke-width:0.6;"/><path d="M1073.1094,607.1332 Q1073.2031,607.002 1073.3156,606.9363 Q1073.4281,606.8707 1073.5594,606.8707 Q1073.7844,606.8707 1073.925,607.0301 Q1074.0656,607.1801 1074.0656,607.5457 L1074.0656,608.4176 Q1074.0656,608.7832 1073.925,608.9426 Q1073.7844,609.102 1073.5594,609.102 Q1073.3531,609.102 1073.2313,608.9801 Q1073.1094,608.8676 1073.0438,608.5582 Q1073.0156,608.3426 1072.9031,608.2301 Q1072.7063,608.0051 1072.3406,607.8738 Q1071.975,607.7426 1071.6,607.7426 Q1071.1406,607.7426 1070.7563,607.9395 Q1070.3813,608.1363 1070.0813,608.5863 Q1069.7906,609.0363 1069.7906,609.6551 L1069.7906,610.3113 Q1069.7906,611.052 1070.325,611.5488 Q1070.8594,612.0363 1071.8156,612.0363 Q1072.3781,612.0363 1072.7719,611.8863 Q1073.0063,611.7926 1073.2594,611.5301 Q1073.4188,611.3707 1073.5031,611.3238 Q1073.5969,611.277 1073.7188,611.277 Q1073.9156,611.277 1074.0656,611.4363 Q1074.225,611.5863 1074.225,611.7926 Q1074.225,611.9988 1074.0188,612.2426 Q1073.7188,612.5895 1073.2406,612.7863 Q1072.5938,613.0582 1071.8156,613.0582 Q1070.9063,613.0582 1070.1844,612.6832 Q1069.5938,612.3832 1069.1812,611.7457 Q1068.7688,611.0988 1068.7688,610.3301 L1068.7688,609.6363 Q1068.7688,608.8395 1069.1344,608.1551 Q1069.5094,607.4613 1070.1656,607.0957 Q1070.8219,606.7207 1071.5625,606.7207 Q1072.0031,606.7207 1072.3875,606.8238 Q1072.7813,606.9176 1073.1094,607.1332 Z " fill="#000000"/><text fill="#000000" font-family="sans-serif" font-size="8.4" lengthAdjust="spacing" textLength="79.2" x="1083.75" y="613.0863">CreateButtonFactory</text><line style="stroke:#181818;stroke-width:0.3;" x1="1033.2" x2="1194" y1="619.2082" y2="619.2082"/><line style="stroke:#181818;stroke-width:0.3;" x1="1033.2" x2="1194" y1="624.0082" y2="624.0082"/><ellipse cx="1039.2" cy="632.8945" fill="#84BE84" rx="1.8" ry="1.8" style="stroke:#038048;stroke-width:0.6;"/><text fill="#000000" font-family="sans-serif" font-size="8.4" lengthAdjust="spacing" textLength="146.4" x="1044.6" y="635.4727">createButton(type: String): ButtonBase</text></g><!--class BaseTableList--><g id="elem_BaseTableList"><rect codeLine="21" fill="#F1F1F1" height="118.1812" id="BaseTableList" rx="1.5" ry="1.5" style="stroke:#181818;stroke-width:0.3;" width="248.4" x="27.6" y="312.0082"/><ellipse cx="122.25" cy="321.6082" fill="#ADD1B2" rx="6.6" ry="6.6" style="stroke:#181818;stroke-width:0.6;"/><path d="M123.9094,319.1332 Q124.0031,319.002 124.1156,318.9363 Q124.2281,318.8707 124.3594,318.8707 Q124.5844,318.8707 124.725,319.0301 Q124.8656,319.1801 124.8656,319.5457 L124.8656,320.4176 Q124.8656,320.7832 124.725,320.9426 Q124.5844,321.102 124.3594,321.102 Q124.1531,321.102 124.0313,320.9801 Q123.9094,320.8676 123.8438,320.5582 Q123.8156,320.3426 123.7031,320.2301 Q123.5063,320.0051 123.1406,319.8738 Q122.775,319.7426 122.4,319.7426 Q121.9406,319.7426 121.5562,319.9395 Q121.1812,320.1363 120.8813,320.5863 Q120.5906,321.0363 120.5906,321.6551 L120.5906,322.3113 Q120.5906,323.052 121.125,323.5488 Q121.6594,324.0363 122.6156,324.0363 Q123.1781,324.0363 123.5719,323.8863 Q123.8062,323.7926 124.0594,323.5301 Q124.2188,323.3707 124.3031,323.3238 Q124.3969,323.277 124.5188,323.277 Q124.7156,323.277 124.8656,323.4363 Q125.025,323.5863 125.025,323.7926 Q125.025,323.9988 124.8188,324.2426 Q124.5188,324.5895 124.0406,324.7863 Q123.3938,325.0582 122.6156,325.0582 Q121.7063,325.0582 120.9844,324.6832 Q120.3938,324.3832 119.9812,323.7457 Q119.5688,323.0988 119.5688,322.3301 L119.5688,321.6363 Q119.5688,320.8395 119.9344,320.1551 Q120.3094,319.4613 120.9656,319.0957 Q121.6219,318.7207 122.3625,318.7207 Q122.8031,318.7207 123.1875,318.8238 Q123.5813,318.9176 123.9094,319.1332 Z " fill="#000000"/><text fill="#000000" font-family="sans-serif" font-size="8.4" lengthAdjust="spacing" textLength="54" x="134.55" y="325.0863">BaseTableList</text><line style="stroke:#181818;stroke-width:0.3;" x1="28.2" x2="275.4" y1="331.2082" y2="331.2082"/><ellipse cx="34.2" cy="340.0945" fill="none" rx="1.8" ry="1.8" style="stroke:#038048;stroke-width:0.6;"/><text fill="#000000" font-family="sans-serif" font-size="8.4" lengthAdjust="spacing" textLength="136.8" x="39.6" y="342.6727">buttonFactory: CreateButtonFactory</text><ellipse cx="34.2" cy="351.2672" fill="none" rx="1.8" ry="1.8" style="stroke:#038048;stroke-width:0.6;"/><text fill="#000000" font-family="sans-serif" font-size="8.4" lengthAdjust="spacing" textLength="77.4" x="39.6" y="353.8453">cTableRows: integer</text><ellipse cx="34.2" cy="362.4398" fill="none" rx="1.8" ry="1.8" style="stroke:#038048;stroke-width:0.6;"/><text fill="#000000" font-family="sans-serif" font-size="8.4" lengthAdjust="spacing" textLength="90" x="39.6" y="365.018">cTableColumns: integer</text><line style="stroke:#181818;stroke-width:0.3;" x1="28.2" x2="275.4" y1="369.5262" y2="369.5262"/><ellipse cx="34.2" cy="378.4125" fill="#84BE84" rx="1.8" ry="1.8" style="stroke:#038048;stroke-width:0.6;"/><text fill="#000000" font-family="sans-serif" font-size="8.4" lengthAdjust="spacing" textLength="206.4" x="39.6" y="380.9906">BaseTableList(builder: TableListBuilder) &#171;constructor&#187;</text><ellipse cx="34.2" cy="389.5852" fill="#84BE84" rx="1.8" ry="1.8" style="stroke:#038048;stroke-width:0.6;"/><text fill="#000000" font-family="sans-serif" font-size="8.4" lengthAdjust="spacing" textLength="86.4" x="39.6" y="392.1633">renderTableList(): void</text><rect fill="#F24D5C" height="3.6" style="stroke:#C82930;stroke-width:0.6;" width="3.6" x="32.4" y="398.9578"/><text fill="#000000" font-family="sans-serif" font-size="8.4" lengthAdjust="spacing" textLength="65.4" x="39.6" y="403.3359">setHeader(): void</text><rect fill="#F24D5C" height="3.6" style="stroke:#C82930;stroke-width:0.6;" width="3.6" x="32.4" y="410.1305"/><text fill="#000000" font-family="sans-serif" font-size="8.4" lengthAdjust="spacing" textLength="57" x="39.6" y="414.5086">setBody(): void</text><ellipse cx="34.2" cy="423.1031" fill="#84BE84" rx="1.8" ry="1.8" style="stroke:#038048;stroke-width:0.6;"/><text fill="#000000" font-family="sans-serif" font-size="8.4" lengthAdjust="spacing" textLength="232.8" x="39.6" y="425.6813">execute(command: tableCommand, btn: HTMLButtonElement)</text></g><!--class SealedTableList--><g id="elem_SealedTableList"><rect codeLine="32" fill="#F1F1F1" height="28.8" id="SealedTableList" rx="1.5" ry="1.5" style="stroke:#181818;stroke-width:0.3;" width="80.4" x="29.4" y="495.9082"/><ellipse cx="38.4" cy="505.5082" fill="#ADD1B2" rx="6.6" ry="6.6" style="stroke:#181818;stroke-width:0.6;"/><path d="M40.0594,503.0332 Q40.1531,502.902 40.2656,502.8363 Q40.3781,502.7707 40.5094,502.7707 Q40.7344,502.7707 40.875,502.9301 Q41.0156,503.0801 41.0156,503.4457 L41.0156,504.3176 Q41.0156,504.6832 40.875,504.8426 Q40.7344,505.002 40.5094,505.002 Q40.3031,505.002 40.1813,504.8801 Q40.0594,504.7676 39.9938,504.4582 Q39.9656,504.2426 39.8531,504.1301 Q39.6563,503.9051 39.2906,503.7738 Q38.925,503.6426 38.55,503.6426 Q38.0906,503.6426 37.7063,503.8395 Q37.3313,504.0363 37.0313,504.4863 Q36.7406,504.9363 36.7406,505.5551 L36.7406,506.2113 Q36.7406,506.952 37.275,507.4488 Q37.8094,507.9363 38.7656,507.9363 Q39.3281,507.9363 39.7219,507.7863 Q39.9563,507.6926 40.2094,507.4301 Q40.3688,507.2707 40.4531,507.2238 Q40.5469,507.177 40.6687,507.177 Q40.8656,507.177 41.0156,507.3363 Q41.175,507.4863 41.175,507.6926 Q41.175,507.8988 40.9688,508.1426 Q40.6687,508.4895 40.1906,508.6863 Q39.5437,508.9582 38.7656,508.9582 Q37.8562,508.9582 37.1344,508.5832 Q36.5437,508.2832 36.1313,507.6457 Q35.7188,506.9988 35.7188,506.2301 L35.7188,505.5363 Q35.7188,504.7395 36.0844,504.0551 Q36.4594,503.3613 37.1156,502.9957 Q37.7719,502.6207 38.5125,502.6207 Q38.9531,502.6207 39.3375,502.7238 Q39.7312,502.8176 40.0594,503.0332 Z " fill="#000000"/><text fill="#000000" font-family="sans-serif" font-size="8.4" lengthAdjust="spacing" textLength="61.2" x="46.8" y="508.9863">SealedTableList</text><line style="stroke:#181818;stroke-width:0.3;" x1="30" x2="109.2" y1="515.1082" y2="515.1082"/><line style="stroke:#181818;stroke-width:0.3;" x1="30" x2="109.2" y1="519.9082" y2="519.9082"/></g><!--class ExtendableTableList--><g id="elem_ExtendableTableList"><rect codeLine="34" fill="#F1F1F1" height="39.9727" id="ExtendableTableList" rx="1.5" ry="1.5" style="stroke:#181818;stroke-width:0.3;" width="192" x="81.6" y="600.0082"/><ellipse cx="136.65" cy="609.6082" fill="#ADD1B2" rx="6.6" ry="6.6" style="stroke:#181818;stroke-width:0.6;"/><path d="M138.3094,607.1332 Q138.4031,607.002 138.5156,606.9363 Q138.6281,606.8707 138.7594,606.8707 Q138.9844,606.8707 139.125,607.0301 Q139.2656,607.1801 139.2656,607.5457 L139.2656,608.4176 Q139.2656,608.7832 139.125,608.9426 Q138.9844,609.102 138.7594,609.102 Q138.5531,609.102 138.4313,608.9801 Q138.3094,608.8676 138.2438,608.5582 Q138.2156,608.3426 138.1031,608.2301 Q137.9063,608.0051 137.5406,607.8738 Q137.175,607.7426 136.8,607.7426 Q136.3406,607.7426 135.9562,607.9395 Q135.5812,608.1363 135.2813,608.5863 Q134.9906,609.0363 134.9906,609.6551 L134.9906,610.3113 Q134.9906,611.052 135.525,611.5488 Q136.0594,612.0363 137.0156,612.0363 Q137.5781,612.0363 137.9719,611.8863 Q138.2062,611.7926 138.4594,611.5301 Q138.6188,611.3707 138.7031,611.3238 Q138.7969,611.277 138.9188,611.277 Q139.1156,611.277 139.2656,611.4363 Q139.425,611.5863 139.425,611.7926 Q139.425,611.9988 139.2188,612.2426 Q138.9188,612.5895 138.4406,612.7863 Q137.7938,613.0582 137.0156,613.0582 Q136.1063,613.0582 135.3844,612.6832 Q134.7938,612.3832 134.3813,611.7457 Q133.9688,611.0988 133.9688,610.3301 L133.9688,609.6363 Q133.9688,608.8395 134.3344,608.1551 Q134.7094,607.4613 135.3656,607.0957 Q136.0219,606.7207 136.7625,606.7207 Q137.2031,606.7207 137.5875,606.8238 Q137.9813,606.9176 138.3094,607.1332 Z " fill="#000000"/><text fill="#000000" font-family="sans-serif" font-size="8.4" lengthAdjust="spacing" textLength="76.8" x="148.95" y="613.0863">ExtendableTableList</text><line style="stroke:#181818;stroke-width:0.3;" x1="82.2" x2="273" y1="619.2082" y2="619.2082"/><line style="stroke:#181818;stroke-width:0.3;" x1="82.2" x2="273" y1="624.0082" y2="624.0082"/><ellipse cx="88.2" cy="632.8945" fill="#84BE84" rx="1.8" ry="1.8" style="stroke:#038048;stroke-width:0.6;"/><text fill="#000000" font-family="sans-serif" font-size="8.4" lengthAdjust="spacing" textLength="176.4" x="93.6" y="635.4727">addTableButton(options): HTMLButtonElement</text></g><!--class DraggableTableList--><g id="elem_DraggableTableList"><rect codeLine="38" fill="#F1F1F1" height="28.8" id="DraggableTableList" rx="1.5" ry="1.5" style="stroke:#181818;stroke-width:0.3;" width="93.6" x="130.8" y="495.9082"/><ellipse cx="139.8" cy="505.5082" fill="#ADD1B2" rx="6.6" ry="6.6" style="stroke:#181818;stroke-width:0.6;"/><path d="M141.4594,503.0332 Q141.5531,502.902 141.6656,502.8363 Q141.7781,502.7707 141.9094,502.7707 Q142.1344,502.7707 142.275,502.9301 Q142.4156,503.0801 142.4156,503.4457 L142.4156,504.3176 Q142.4156,504.6832 142.275,504.8426 Q142.1344,505.002 141.9094,505.002 Q141.7031,505.002 141.5812,504.8801 Q141.4594,504.7676 141.3937,504.4582 Q141.3656,504.2426 141.2531,504.1301 Q141.0563,503.9051 140.6906,503.7738 Q140.325,503.6426 139.95,503.6426 Q139.4906,503.6426 139.1063,503.8395 Q138.7313,504.0363 138.4313,504.4863 Q138.1406,504.9363 138.1406,505.5551 L138.1406,506.2113 Q138.1406,506.952 138.675,507.4488 Q139.2094,507.9363 140.1656,507.9363 Q140.7281,507.9363 141.1219,507.7863 Q141.3563,507.6926 141.6094,507.4301 Q141.7687,507.2707 141.8531,507.2238 Q141.9469,507.177 142.0688,507.177 Q142.2656,507.177 142.4156,507.3363 Q142.575,507.4863 142.575,507.6926 Q142.575,507.8988 142.3688,508.1426 Q142.0688,508.4895 141.5906,508.6863 Q140.9438,508.9582 140.1656,508.9582 Q139.2563,508.9582 138.5344,508.5832 Q137.9438,508.2832 137.5313,507.6457 Q137.1188,506.9988 137.1188,506.2301 L137.1188,505.5363 Q137.1188,504.7395 137.4844,504.0551 Q137.8594,503.3613 138.5156,502.9957 Q139.1719,502.6207 139.9125,502.6207 Q140.3531,502.6207 140.7375,502.7238 Q141.1313,502.8176 141.4594,503.0332 Z " fill="#000000"/><text fill="#000000" font-family="sans-serif" font-size="8.4" lengthAdjust="spacing" textLength="74.4" x="148.2" y="508.9863">DraggableTableList</text><line style="stroke:#181818;stroke-width:0.3;" x1="131.4" x2="223.8" y1="515.1082" y2="515.1082"/><line style="stroke:#181818;stroke-width:0.3;" x1="131.4" x2="223.8" y1="519.9082" y2="519.9082"/></g><!--class BasicTableWrapper--><g id="elem_BasicTableWrapper"><rect codeLine="95" fill="#F1F1F1" height="62.318" id="BasicTableWrapper" rx="1.5" ry="1.5" style="stroke:#181818;stroke-width:0.3;" width="211.2" x="393" y="65.4082"/><ellipse cx="458.25" cy="75.0082" fill="#A9DCDF" rx="6.6" ry="6.6" style="stroke:#181818;stroke-width:0.6;"/><path d="M459.5625,76.0676 L457.0781,76.0676 L456.825,76.6863 L457.0781,76.6863 Q457.4437,76.6863 457.6031,76.827 Q457.7625,76.9676 457.7625,77.202 Q457.7625,77.427 457.6031,77.5676 Q457.4437,77.7082 457.0781,77.7082 L455.7,77.7082 Q455.3344,77.7082 455.1844,77.5676 Q455.025,77.427 455.025,77.1926 Q455.025,76.9676 455.1937,76.827 Q455.3531,76.677 455.7281,76.6863 L457.3313,72.6926 L456.6656,72.6926 Q456.3,72.6926 456.1406,72.552 Q455.9813,72.4113 455.9813,72.177 Q455.9813,71.952 456.1406,71.8113 Q456.3,71.6707 456.6656,71.6707 L458.8688,71.6707 L460.9031,76.6863 Q461.2594,76.6863 461.3719,76.7707 Q461.6063,76.9301 461.6063,77.202 Q461.6063,77.427 461.4469,77.5676 Q461.2969,77.7082 460.9313,77.7082 L459.5531,77.7082 Q459.1875,77.7082 459.0281,77.5676 Q458.8688,77.427 458.8688,77.1926 Q458.8688,76.9676 459.0281,76.827 Q459.1875,76.6863 459.5531,76.6863 L459.8063,76.6863 L459.5625,76.0676 Z M459.1312,75.0457 L458.3156,73.0207 L457.4906,75.0457 L459.1312,75.0457 Z " fill="#000000"/><text fill="#000000" font-family="sans-serif" font-size="8.4" font-style="italic" lengthAdjust="spacing" textLength="75.6" x="470.55" y="78.4863">BasicTableWrapper</text><line style="stroke:#181818;stroke-width:0.3;" x1="393.6" x2="603.6" y1="84.6082" y2="84.6082"/><ellipse cx="399.6" cy="93.4945" fill="none" rx="1.8" ry="1.8" style="stroke:#038048;stroke-width:0.6;"/><text fill="#000000" font-family="sans-serif" font-size="8.4" lengthAdjust="spacing" textLength="79.2" x="405" y="96.0727">wrapperName: String</text><line style="stroke:#181818;stroke-width:0.3;" x1="393.6" x2="603.6" y1="100.5809" y2="100.5809"/><text fill="#000000" font-family="sans-serif" font-size="8.4" lengthAdjust="spacing" textLength="195.6" x="405" y="112.0453">BasicTableWrapper(tableContainer: BaseTableList)</text><ellipse cx="399.6" cy="120.6398" fill="#84BE84" rx="1.8" ry="1.8" style="stroke:#038048;stroke-width:0.6;"/><text fill="#000000" font-family="sans-serif" font-size="8.4" font-style="italic" lengthAdjust="spacing" textLength="51" x="405" y="123.218">render(): void</text></g><!--class HolidayTimesWrapper--><g id="elem_HolidayTimesWrapper"><rect codeLine="101" fill="#F1F1F1" height="28.8" id="HolidayTimesWrapper" rx="1.5" ry="1.5" style="stroke:#181818;stroke-width:0.3;" width="102.6" x="394.5" y="164.4082"/><ellipse cx="403.5" cy="174.0082" fill="#ADD1B2" rx="6.6" ry="6.6" style="stroke:#181818;stroke-width:0.6;"/><path d="M405.1594,171.5332 Q405.2531,171.402 405.3656,171.3363 Q405.4781,171.2707 405.6094,171.2707 Q405.8344,171.2707 405.975,171.4301 Q406.1156,171.5801 406.1156,171.9457 L406.1156,172.8176 Q406.1156,173.1832 405.975,173.3426 Q405.8344,173.502 405.6094,173.502 Q405.4031,173.502 405.2813,173.3801 Q405.1594,173.2676 405.0938,172.9582 Q405.0656,172.7426 404.9531,172.6301 Q404.7562,172.4051 404.3906,172.2738 Q404.025,172.1426 403.65,172.1426 Q403.1906,172.1426 402.8063,172.3395 Q402.4313,172.5363 402.1312,172.9863 Q401.8406,173.4363 401.8406,174.0551 L401.8406,174.7113 Q401.8406,175.452 402.375,175.9488 Q402.9094,176.4363 403.8656,176.4363 Q404.4281,176.4363 404.8219,176.2863 Q405.0563,176.1926 405.3094,175.9301 Q405.4688,175.7707 405.5531,175.7238 Q405.6469,175.677 405.7688,175.677 Q405.9656,175.677 406.1156,175.8363 Q406.275,175.9863 406.275,176.1926 Q406.275,176.3988 406.0687,176.6426 Q405.7688,176.9895 405.2906,177.1863 Q404.6438,177.4582 403.8656,177.4582 Q402.9563,177.4582 402.2344,177.0832 Q401.6438,176.7832 401.2313,176.1457 Q400.8187,175.4988 400.8187,174.7301 L400.8187,174.0363 Q400.8187,173.2395 401.1844,172.5551 Q401.5594,171.8613 402.2156,171.4957 Q402.8719,171.1207 403.6125,171.1207 Q404.0531,171.1207 404.4375,171.2238 Q404.8313,171.3176 405.1594,171.5332 Z " fill="#000000"/><text fill="#000000" font-family="sans-serif" font-size="8.4" lengthAdjust="spacing" textLength="83.4" x="411.9" y="177.4863">HolidayTimesWrapper</text><line style="stroke:#181818;stroke-width:0.3;" x1="395.1" x2="496.5" y1="183.6082" y2="183.6082"/><line style="stroke:#181818;stroke-width:0.3;" x1="395.1" x2="496.5" y1="188.4082" y2="188.4082"/></g><!--class SuitcaseWrapper--><g id="elem_SuitcaseWrapper"><rect codeLine="102" fill="#F1F1F1" height="28.8" id="SuitcaseWrapper" rx="1.5" ry="1.5" style="stroke:#181818;stroke-width:0.3;" width="84.6" x="518.1" y="164.4082"/><ellipse cx="527.1" cy="174.0082" fill="#ADD1B2" rx="6.6" ry="6.6" style="stroke:#181818;stroke-width:0.6;"/><path d="M528.7594,171.5332 Q528.8531,171.402 528.9656,171.3363 Q529.0781,171.2707 529.2094,171.2707 Q529.4344,171.2707 529.575,171.4301 Q529.7156,171.5801 529.7156,171.9457 L529.7156,172.8176 Q529.7156,173.1832 529.575,173.3426 Q529.4344,173.502 529.2094,173.502 Q529.0031,173.502 528.8813,173.3801 Q528.7594,173.2676 528.6938,172.9582 Q528.6656,172.7426 528.5531,172.6301 Q528.3562,172.4051 527.9906,172.2738 Q527.625,172.1426 527.25,172.1426 Q526.7906,172.1426 526.4063,172.3395 Q526.0313,172.5363 525.7312,172.9863 Q525.4406,173.4363 525.4406,174.0551 L525.4406,174.7113 Q525.4406,175.452 525.975,175.9488 Q526.5094,176.4363 527.4656,176.4363 Q528.0281,176.4363 528.4219,176.2863 Q528.6563,176.1926 528.9094,175.9301 Q529.0688,175.7707 529.1531,175.7238 Q529.2469,175.677 529.3688,175.677 Q529.5656,175.677 529.7156,175.8363 Q529.875,175.9863 529.875,176.1926 Q529.875,176.3988 529.6687,176.6426 Q529.3688,176.9895 528.8906,177.1863 Q528.2438,177.4582 527.4656,177.4582 Q526.5563,177.4582 525.8344,177.0832 Q525.2438,176.7832 524.8313,176.1457 Q524.4187,175.4988 524.4187,174.7301 L524.4187,174.0363 Q524.4187,173.2395 524.7844,172.5551 Q525.1594,171.8613 525.8156,171.4957 Q526.4719,171.1207 527.2125,171.1207 Q527.6531,171.1207 528.0375,171.2238 Q528.4313,171.3176 528.7594,171.5332 Z " fill="#000000"/><text fill="#000000" font-family="sans-serif" font-size="8.4" lengthAdjust="spacing" textLength="65.4" x="535.5" y="177.4863">SuitcaseWrapper</text><line style="stroke:#181818;stroke-width:0.3;" x1="518.7" x2="602.1" y1="183.6082" y2="183.6082"/><line style="stroke:#181818;stroke-width:0.3;" x1="518.7" x2="602.1" y1="188.4082" y2="188.4082"/></g><!--class TableCRUDService--><g id="elem_TableCRUDService"><rect codeLine="107" fill="#F1F1F1" height="51.1453" id="TableCRUDService" rx="1.5" ry="1.5" style="stroke:#181818;stroke-width:0.3;" width="271.2" x="1077" y="71.1082"/><ellipse cx="1173.45" cy="80.7082" fill="#ADD1B2" rx="6.6" ry="6.6" style="stroke:#181818;stroke-width:0.6;"/><path d="M1175.1094,78.2332 Q1175.2031,78.102 1175.3156,78.0363 Q1175.4281,77.9707 1175.5594,77.9707 Q1175.7844,77.9707 1175.925,78.1301 Q1176.0656,78.2801 1176.0656,78.6457 L1176.0656,79.5176 Q1176.0656,79.8832 1175.925,80.0426 Q1175.7844,80.202 1175.5594,80.202 Q1175.3531,80.202 1175.2313,80.0801 Q1175.1094,79.9676 1175.0438,79.6582 Q1175.0156,79.4426 1174.9031,79.3301 Q1174.7063,79.1051 1174.3406,78.9738 Q1173.975,78.8426 1173.6,78.8426 Q1173.1406,78.8426 1172.7563,79.0395 Q1172.3813,79.2363 1172.0813,79.6863 Q1171.7906,80.1363 1171.7906,80.7551 L1171.7906,81.4113 Q1171.7906,82.152 1172.325,82.6488 Q1172.8594,83.1363 1173.8156,83.1363 Q1174.3781,83.1363 1174.7719,82.9863 Q1175.0063,82.8926 1175.2594,82.6301 Q1175.4188,82.4707 1175.5031,82.4238 Q1175.5969,82.377 1175.7188,82.377 Q1175.9156,82.377 1176.0656,82.5363 Q1176.225,82.6863 1176.225,82.8926 Q1176.225,83.0988 1176.0188,83.3426 Q1175.7188,83.6895 1175.2406,83.8863 Q1174.5938,84.1582 1173.8156,84.1582 Q1172.9063,84.1582 1172.1844,83.7832 Q1171.5938,83.4832 1171.1812,82.8457 Q1170.7688,82.1988 1170.7688,81.4301 L1170.7688,80.7363 Q1170.7688,79.9395 1171.1344,79.2551 Q1171.5094,78.5613 1172.1656,78.1957 Q1172.8219,77.8207 1173.5625,77.8207 Q1174.0031,77.8207 1174.3875,77.9238 Q1174.7813,78.0176 1175.1094,78.2332 Z " fill="#000000"/><text fill="#000000" font-family="sans-serif" font-size="8.4" lengthAdjust="spacing" textLength="73.2" x="1185.75" y="84.1863">TableCRUDService</text><line style="stroke:#181818;stroke-width:0.3;" x1="1077.6" x2="1347.6" y1="90.3082" y2="90.3082"/><line style="stroke:#181818;stroke-width:0.3;" x1="1077.6" x2="1347.6" y1="95.1082" y2="95.1082"/><ellipse cx="1083.6" cy="103.9945" fill="#84BE84" rx="1.8" ry="1.8" style="stroke:#038048;stroke-width:0.6;"/><text fill="#000000" font-family="sans-serif" font-size="8.4" lengthAdjust="spacing" textLength="255.6" x="1089" y="106.5727">saveToTableByName(tableName: String, table: HTMLElement): void</text><ellipse cx="1083.6" cy="115.1672" fill="#84BE84" rx="1.8" ry="1.8" style="stroke:#038048;stroke-width:0.6;"/><text fill="#000000" font-family="sans-serif" font-size="8.4" lengthAdjust="spacing" textLength="241.2" x="1089" y="117.7453">loadTableByName(tableName: String, table:HTMLElement): void</text></g><!--class FirebaseDB--><g id="elem_FirebaseDB"><rect codeLine="114" fill="#F1F1F1" height="51.1453" id="FirebaseDB" rx="1.5" ry="1.5" style="stroke:#181818;stroke-width:0.3;" width="219" x="1953.9" y="345.6082"/><ellipse cx="2038.35" cy="355.2082" fill="#ADD1B2" rx="6.6" ry="6.6" style="stroke:#181818;stroke-width:0.6;"/><path d="M2040.0094,352.7332 Q2040.1031,352.602 2040.2156,352.5363 Q2040.3281,352.4707 2040.4594,352.4707 Q2040.6844,352.4707 2040.825,352.6301 Q2040.9656,352.7801 2040.9656,353.1457 L2040.9656,354.0176 Q2040.9656,354.3832 2040.825,354.5426 Q2040.6844,354.702 2040.4594,354.702 Q2040.2531,354.702 2040.1313,354.5801 Q2040.0094,354.4676 2039.9438,354.1582 Q2039.9156,353.9426 2039.8031,353.8301 Q2039.6062,353.6051 2039.2406,353.4738 Q2038.875,353.3426 2038.5,353.3426 Q2038.0406,353.3426 2037.6563,353.5395 Q2037.2813,353.7363 2036.9812,354.1863 Q2036.6906,354.6363 2036.6906,355.2551 L2036.6906,355.9113 Q2036.6906,356.652 2037.225,357.1488 Q2037.7594,357.6363 2038.7156,357.6363 Q2039.2781,357.6363 2039.6719,357.4863 Q2039.9063,357.3926 2040.1594,357.1301 Q2040.3188,356.9707 2040.4031,356.9238 Q2040.4969,356.877 2040.6187,356.877 Q2040.8156,356.877 2040.9656,357.0363 Q2041.125,357.1863 2041.125,357.3926 Q2041.125,357.5988 2040.9187,357.8426 Q2040.6187,358.1895 2040.1406,358.3863 Q2039.4937,358.6582 2038.7156,358.6582 Q2037.8062,358.6582 2037.0844,358.2832 Q2036.4937,357.9832 2036.0813,357.3457 Q2035.6687,356.6988 2035.6687,355.9301 L2035.6687,355.2363 Q2035.6687,354.4395 2036.0344,353.7551 Q2036.4094,353.0613 2037.0656,352.6957 Q2037.7219,352.3207 2038.4625,352.3207 Q2038.9031,352.3207 2039.2875,352.4238 Q2039.6812,352.5176 2040.0094,352.7332 Z " fill="#000000"/><text fill="#000000" font-family="sans-serif" font-size="8.4" lengthAdjust="spacing" textLength="45" x="2050.65" y="358.6863">FirebaseDB</text><line style="stroke:#181818;stroke-width:0.3;" x1="1954.5" x2="2172.3" y1="364.8082" y2="364.8082"/><line style="stroke:#181818;stroke-width:0.3;" x1="1954.5" x2="2172.3" y1="369.6082" y2="369.6082"/><ellipse cx="1960.5" cy="378.4945" fill="#84BE84" rx="1.8" ry="1.8" style="stroke:#038048;stroke-width:0.6;"/><text fill="#000000" font-family="sans-serif" font-size="8.4" lengthAdjust="spacing" textLength="203.4" x="1965.9" y="381.0727">writeUserData(userId: int, sub: String, payload: String)</text><ellipse cx="1960.5" cy="389.6672" fill="#84BE84" rx="1.8" ry="1.8" style="stroke:#038048;stroke-width:0.6;"/><text fill="#000000" font-family="sans-serif" font-size="8.4" lengthAdjust="spacing" textLength="136.2" x="1965.9" y="392.2453">getUserData(userId: int, sub: String)</text></g><!--class FirebaseConfig--><g id="elem_FirebaseConfig"><rect codeLine="119" fill="#F1F1F1" height="39.9727" id="FirebaseConfig" rx="1.5" ry="1.5" style="stroke:#181818;stroke-width:0.3;" width="102.6" x="2012.1" y="600.0082"/><ellipse cx="2032.44" cy="609.6082" fill="#ADD1B2" rx="6.6" ry="6.6" style="stroke:#181818;stroke-width:0.6;"/><path d="M2034.0994,607.1332 Q2034.1931,607.002 2034.3056,606.9363 Q2034.4181,606.8707 2034.5494,606.8707 Q2034.7744,606.8707 2034.915,607.0301 Q2035.0556,607.1801 2035.0556,607.5457 L2035.0556,608.4176 Q2035.0556,608.7832 2034.915,608.9426 Q2034.7744,609.102 2034.5494,609.102 Q2034.3431,609.102 2034.2213,608.9801 Q2034.0994,608.8676 2034.0338,608.5582 Q2034.0056,608.3426 2033.8931,608.2301 Q2033.6963,608.0051 2033.3306,607.8738 Q2032.965,607.7426 2032.59,607.7426 Q2032.1306,607.7426 2031.7463,607.9395 Q2031.3713,608.1363 2031.0713,608.5863 Q2030.7806,609.0363 2030.7806,609.6551 L2030.7806,610.3113 Q2030.7806,611.052 2031.315,611.5488 Q2031.8494,612.0363 2032.8056,612.0363 Q2033.3681,612.0363 2033.7619,611.8863 Q2033.9963,611.7926 2034.2494,611.5301 Q2034.4088,611.3707 2034.4931,611.3238 Q2034.5869,611.277 2034.7088,611.277 Q2034.9056,611.277 2035.0556,611.4363 Q2035.215,611.5863 2035.215,611.7926 Q2035.215,611.9988 2035.0088,612.2426 Q2034.7088,612.5895 2034.2306,612.7863 Q2033.5838,613.0582 2032.8056,613.0582 Q2031.8963,613.0582 2031.1744,612.6832 Q2030.5838,612.3832 2030.1712,611.7457 Q2029.7588,611.0988 2029.7588,610.3301 L2029.7588,609.6363 Q2029.7588,608.8395 2030.1244,608.1551 Q2030.4994,607.4613 2031.1556,607.0957 Q2031.8119,606.7207 2032.5525,606.7207 Q2032.9931,606.7207 2033.3775,606.8238 Q2033.7713,606.9176 2034.0994,607.1332 Z " fill="#000000"/><text fill="#000000" font-family="sans-serif" font-size="8.4" lengthAdjust="spacing" textLength="58.2" x="2043.36" y="613.0863">FirebaseConfig</text><line style="stroke:#181818;stroke-width:0.3;" x1="2012.7" x2="2114.1" y1="619.2082" y2="619.2082"/><line style="stroke:#181818;stroke-width:0.3;" x1="2012.7" x2="2114.1" y1="624.0082" y2="624.0082"/><ellipse cx="2018.7" cy="632.8945" fill="#84BE84" rx="1.8" ry="1.8" style="stroke:#038048;stroke-width:0.6;"/><text fill="#000000" font-family="sans-serif" font-size="8.4" lengthAdjust="spacing" textLength="87" x="2024.1" y="635.4727">initializeFirebase():void</text></g><!--reverse link BaseTableList to SealedTableList--><g id="link_BaseTableList_SealedTableList"><path d="M111.4134,439.511 C97.0614,463.607 87.198,480.1702 77.988,495.6262 " fill="none" id="BaseTableList-backto-SealedTableList" style="stroke:#181818;stroke-width:0.6;"/><polygon fill="none" points="116.94,430.2322,108.3204,437.6688,114.5063,441.3532,116.94,430.2322" style="stroke:#181818;stroke-width:0.6;"/></g><!--reverse link DraggableTableList to ExtendableTableList--><g id="link_DraggableTableList_ExtendableTableList"><path d="M177.6,535.6822 C177.6,554.7622 177.6,578.2522 177.6,599.8942 " fill="none" id="DraggableTableList-backto-ExtendableTableList" style="stroke:#181818;stroke-width:0.6;"/><polygon fill="none" points="177.6,524.8822,174,535.6822,181.2,535.6822,177.6,524.8822" style="stroke:#181818;stroke-width:0.6;"/></g><!--reverse link BaseTableList to DraggableTableList--><g id="link_BaseTableList_DraggableTableList"><path d="M164.7267,440.8487 C169.2267,464.9447 172.08,480.1702 174.966,495.6262 " fill="none" id="BaseTableList-backto-DraggableTableList" style="stroke:#181818;stroke-width:0.6;"/><polygon fill="none" points="162.744,430.2322,161.1878,441.5095,168.2655,440.1878,162.744,430.2322" style="stroke:#181818;stroke-width:0.6;"/></g><!--reverse link CommandBase to DeleteTableTagCommand--><g id="link_CommandBase_DeleteTableTagCommand"><path d="M716.7409,399.8632 C644.8369,422.3152 547.068,453.3082 453.6,484.8082 C443.244,488.3002 432.078,492.1942 421.764,495.8542 " fill="none" id="CommandBase-backto-DeleteTableTagCommand" style="stroke:#181818;stroke-width:0.6;"/><polygon fill="none" points="727.05,396.6442,715.6679,396.4268,717.8139,403.2996,727.05,396.6442" style="stroke:#181818;stroke-width:0.6;"/></g><!--reverse link CommandBase to DeleteTBodyCommand--><g id="link_CommandBase_DeleteTBodyCommand"><path d="M745.4234,401.2556 C684.3254,430.2896 595.26,472.6162 546.432,495.8182 " fill="none" id="CommandBase-backto-DeleteTBodyCommand" style="stroke:#181818;stroke-width:0.6;"/><polygon fill="none" points="755.178,396.6202,743.8782,398.0041,746.9685,404.5072,755.178,396.6202" style="stroke:#181818;stroke-width:0.6;"/></g><!--reverse link CommandBase to AddTableInfo--><g id="link_CommandBase_AddTableInfo"><path d="M766.1944,403.2422 C728.0524,432.2942 675.048,472.6582 644.616,495.8362 " fill="none" id="CommandBase-backto-AddTableInfo" style="stroke:#181818;stroke-width:0.6;"/><polygon fill="none" points="774.786,396.6982,764.0131,400.3784,768.3758,406.1061,774.786,396.6982" style="stroke:#181818;stroke-width:0.6;"/></g><!--reverse link CommandBase to CRUDCommand--><g id="link_CommandBase_CRUDCommand"><path d="M786.6379,405.906 C768.8299,434.958 745.716,472.6582 731.502,495.8362 " fill="none" id="CommandBase-backto-CRUDCommand" style="stroke:#181818;stroke-width:0.6;"/><polygon fill="none" points="792.282,396.6982,783.5686,404.0247,789.7072,407.7874,792.282,396.6982" style="stroke:#181818;stroke-width:0.6;"/></g><!--reverse link CommandBase to EnableDragAndDrop--><g id="link_CommandBase_EnableDragAndDrop"><path d="M840.5999,404.2855 C865.8599,429.2215 896.76,459.7222 922.038,484.6702 " fill="none" id="CommandBase-backto-EnableDragAndDrop" style="stroke:#181818;stroke-width:0.6;"/><polygon fill="none" points="832.914,396.6982,838.0708,406.8475,843.129,401.7235,832.914,396.6982" style="stroke:#181818;stroke-width:0.6;"/></g><!--reverse link CommandBase to AddTableRowCommand--><g id="link_CommandBase_AddTableRowCommand"><path d="M891.6997,400.0715 C971.2957,426.9155 1086.072,465.6202 1158.87,490.1722 " fill="none" id="CommandBase-backto-AddTableRowCommand" style="stroke:#181818;stroke-width:0.6;"/><polygon fill="none" points="881.466,396.6202,890.5492,403.4828,892.8501,396.6603,881.466,396.6202" style="stroke:#181818;stroke-width:0.6;"/></g><!--reverse link CommandBase to HolidayDecoratorCommand--><g id="link_CommandBase_HolidayDecoratorCommand"><path d="M930.4578,398.9588 C1051.4838,425.8028 1231.026,465.6202 1341.714,490.1722 " fill="none" id="CommandBase-backto-HolidayDecoratorCommand" style="stroke:#181818;stroke-width:0.6;"/><polygon fill="none" points="919.914,396.6202,929.6782,402.4734,931.2373,395.4443,919.914,396.6202" style="stroke:#181818;stroke-width:0.6;"/></g><!--reverse link CommandBase to createTdInputEleCommand--><g id="link_CommandBase_createTdInputEleCommand"><path d="M942.9577,384.9623 C1090.9957,400.9283 1333.962,432.1822 1546.8,484.8082 C1558.74,487.7602 1571.508,491.8522 1582.926,495.8722 " fill="none" id="CommandBase-backto-createTdInputEleCommand" style="stroke:#181818;stroke-width:0.6;"/><polygon fill="none" points="932.22,383.8042,942.5717,388.5415,943.3438,381.383,932.22,383.8042" style="stroke:#181818;stroke-width:0.6;"/></g><!--reverse link ButtonBase to DeleteButton--><g id="link_ButtonBase_DeleteButton"><path d="M1040.8246,793.1494 C1014.8986,805.7374 995.898,814.9642 975.264,824.9842 " fill="none" id="ButtonBase-backto-DeleteButton" style="stroke:#181818;stroke-width:0.6;"/><polygon fill="none" points="1050.54,788.4322,1039.2522,789.9109,1042.397,796.3878,1050.54,788.4322" style="stroke:#181818;stroke-width:0.6;"/></g><!--reverse link ButtonBase to AddButton--><g id="link_ButtonBase_AddButton"><path d="M1074.8314,796.0107 C1062.0994,808.5507 1055.7,814.8682 1045.536,824.8762 " fill="none" id="ButtonBase-backto-AddButton" style="stroke:#181818;stroke-width:0.6;"/><polygon fill="none" points="1082.526,788.4322,1072.3053,793.4459,1077.3576,798.5756,1082.526,788.4322" style="stroke:#181818;stroke-width:0.6;"/></g><!--reverse link ButtonBase to SaveButton--><g id="link_ButtonBase_SaveButton"><path d="M1113.6,799.2322 C1113.6,811.7722 1113.6,814.8682 1113.6,824.8762 " fill="none" id="ButtonBase-backto-SaveButton" style="stroke:#181818;stroke-width:0.6;"/><polygon fill="none" points="1113.6,788.4322,1110,799.2322,1117.2,799.2322,1113.6,788.4322" style="stroke:#181818;stroke-width:0.6;"/></g><!--reverse link ButtonBase to LoadButton--><g id="link_ButtonBase_LoadButton"><path d="M1153.1333,795.9278 C1166.1413,808.4678 1172.772,814.8682 1183.152,824.8762 " fill="none" id="ButtonBase-backto-LoadButton" style="stroke:#181818;stroke-width:0.6;"/><polygon fill="none" points="1145.358,788.4322,1150.6348,798.5196,1155.6319,793.336,1145.358,788.4322" style="stroke:#181818;stroke-width:0.6;"/></g><!--reverse link ButtonBase to InfoButton--><g id="link_ButtonBase_InfoButton"><path d="M1185.906,793.1769 C1211.646,805.7649 1230.456,814.9642 1250.94,824.9842 " fill="none" id="ButtonBase-backto-InfoButton" style="stroke:#181818;stroke-width:0.6;"/><polygon fill="none" points="1176.204,788.4322,1184.3244,796.4109,1187.4875,789.9429,1176.204,788.4322" style="stroke:#181818;stroke-width:0.6;"/></g><!--reverse link BasicTableWrapper to HolidayTimesWrapper--><g id="link_BasicTableWrapper_HolidayTimesWrapper"><path d="M472.7384,136.8785 C464.5604,149.4185 461.406,154.2682 454.878,164.2762 " fill="none" id="BasicTableWrapper-backto-HolidayTimesWrapper" style="stroke:#181818;stroke-width:0.6;"/><polygon fill="none" points="478.638,127.8322,469.723,134.912,475.7539,138.845,478.638,127.8322" style="stroke:#181818;stroke-width:0.6;"/></g><!--reverse link BasicTableWrapper to SuitcaseWrapper--><g id="link_BasicTableWrapper_SuitcaseWrapper"><path d="M528.5161,136.4177 C538.0861,148.9577 542.13,154.2682 549.774,164.2762 " fill="none" id="BasicTableWrapper-backto-SuitcaseWrapper" style="stroke:#181818;stroke-width:0.6;"/><polygon fill="none" points="521.964,127.8322,525.6542,138.6017,531.3779,134.2337,521.964,127.8322" style="stroke:#181818;stroke-width:0.6;"/></g><!--link FirebaseDB to FirebaseConfig--><g id="link_FirebaseDB_FirebaseConfig"><path codeLine="125" d="M2063.4,404.0302 C2063.4,453.4942 2063.4,551.7562 2063.4,596.3422 " fill="none" id="FirebaseDB-FirebaseConfig" style="stroke:#181818;stroke-width:0.6;"/><polygon fill="none" points="2063.4,396.8302,2061,400.4302,2063.4,404.0302,2065.8,400.4302,2063.4,396.8302" style="stroke:#181818;stroke-width:0.6;"/><polygon fill="#181818" points="2063.4,599.9422,2065.8,594.5422,2063.4,596.9422,2061,594.5422,2063.4,599.9422" style="stroke:#181818;stroke-width:0.6;"/><polygon fill="#000000" points="2066.4,513.3955,2068.1634,507.9685,2064.6366,507.9685,2066.4,513.3955" style="stroke:#000000;stroke-width:0.6;"/><text fill="#000000" font-family="sans-serif" font-size="7.8" lengthAdjust="spacing" textLength="16.8" x="2071.8" y="513.6252">uses</text><text fill="#000000" font-family="sans-serif" font-size="7.8" lengthAdjust="spacing" textLength="4.2" x="2058.7866" y="593.2245">1</text></g><!--link TableCRUDService to FirebaseDB--><g id="link_TableCRUDService_FirebaseDB"><path codeLine="126" d="M1355.4677,100.2333 C1502.6477,108.1173 1733.664,135.4162 1915.2,228.6082 C1970.658,257.0782 2017.3298,310.0953 2042.7158,342.5913 " fill="none" id="TableCRUDService-FirebaseDB" style="stroke:#181818;stroke-width:0.6;"/><polygon fill="none" points="1348.278,99.8482,1351.7445,102.4373,1355.4677,100.2333,1352.0012,97.6442,1348.278,99.8482" style="stroke:#181818;stroke-width:0.6;"/><polygon fill="#181818" points="2044.932,345.4282,2043.4989,339.6953,2043.0851,343.0641,2039.7163,342.6503,2044.932,345.4282" style="stroke:#181818;stroke-width:0.6;"/><polygon fill="#000000" points="1874.8292,179.8932,1870.2976,176.4253,1869.1247,179.7513,1874.8292,179.8932" style="stroke:#000000;stroke-width:0.6;"/><text fill="#000000" font-family="sans-serif" font-size="7.8" lengthAdjust="spacing" textLength="16.8" x="1877.4" y="182.1252">uses</text><text fill="#000000" font-family="sans-serif" font-size="7.8" lengthAdjust="spacing" textLength="4.2" x="2037.5825" y="338.9343">1</text></g><!--link TableCRUDService to CommandBase--><g id="link_TableCRUDService_CommandBase"><path codeLine="127" d="M1175.586,122.1862 C1098.552,174.1702 924.7461,291.4545 847.6581,343.4745 " fill="none" id="TableCRUDService-to-CommandBase" style="stroke:#181818;stroke-width:0.6;stroke-dasharray:7.0,7.0;"/><polygon fill="#181818" points="844.674,345.4882,850.4927,344.457,847.1608,343.8101,847.8077,340.4782,844.674,345.4882" style="stroke:#181818;stroke-width:0.6;"/><polygon fill="#000000" points="1112.3132,180.5736,1117.7982,178.9996,1115.8255,176.0762,1112.3132,180.5736" style="stroke:#000000;stroke-width:0.6;"/><text fill="#000000" font-family="sans-serif" font-size="7.8" lengthAdjust="spacing" textLength="16.8" x="1120.2" y="182.1252">uses</text><text fill="#000000" font-family="sans-serif" font-size="7.8" lengthAdjust="spacing" textLength="4.2" x="846.048" y="338.8115">1</text></g><!--link CommandBase to CreateButtonFactory--><g id="link_CommandBase_CreateButtonFactory"><path codeLine="129" d="M932.112,378.6742 C1163.628,392.9002 1641.474,428.7622 1690.8,484.8082 C1710.006,506.6302 1710.09,528.4642 1690.8,550.2082 C1658.442,586.6822 1349.6169,607.3888 1198.3989,615.4408 " fill="none" id="CommandBase-to-CreateButtonFactory" style="stroke:#181818;stroke-width:0.6;"/><polygon fill="#181818" points="1194.804,615.6322,1200.324,617.7417,1197.7998,615.4727,1200.0687,612.9485,1194.804,615.6322" style="stroke:#181818;stroke-width:0.6;"/><text fill="#000000" font-family="sans-serif" font-size="7.8" lengthAdjust="spacing" textLength="4.2" x="1199.3597" y="613.3365">1</text></g><!--link BaseTableList to CreateButtonFactory--><g id="link_BaseTableList_CreateButtonFactory"><path codeLine="131" d="M197.292,430.3102 C234.726,476.7922 286.074,536.2042 314.4,550.2082 C439.008,611.8282 851.646,619.4764 1028.928,619.8604 " fill="none" id="BaseTableList-to-CreateButtonFactory" style="stroke:#181818;stroke-width:0.6;"/><polygon fill="#181818" points="1032.528,619.8682,1027.1332,617.4565,1029.528,619.8617,1027.1228,622.2565,1032.528,619.8682" style="stroke:#181818;stroke-width:0.6;"/><text fill="#000000" font-family="sans-serif" font-size="7.8" lengthAdjust="spacing" textLength="4.2" x="1023.5196" y="617.7881">1</text></g><!--link BaseTableList to CommandBase--><g id="link_BaseTableList_CommandBase"><path codeLine="132" d="M276.114,371.1082 C392.736,371.1082 562.614,371.1082 679.344,371.1082 " fill="none" id="BaseTableList-to-CommandBase" style="stroke:#181818;stroke-width:0.6;"/><polygon fill="#181818" points="682.944,371.1082,677.544,368.7082,679.944,371.1082,677.544,373.5082,682.944,371.1082" style="stroke:#181818;stroke-width:0.6;"/><polygon fill="#000000" points="472.65,363.6955,467.2229,361.9322,467.2229,365.4589,472.65,363.6955" style="stroke:#000000;stroke-width:0.6;"/><text fill="#000000" font-family="sans-serif" font-size="7.8" lengthAdjust="spacing" textLength="16.8" x="475.05" y="366.9252">uses</text><text fill="#000000" font-family="sans-serif" font-size="7.8" lengthAdjust="spacing" textLength="3" x="675.4103" y="369.1424">*</text></g><!--link BasicTableWrapper to CommandBase--><g id="link_BasicTableWrapper_CommandBase"><path codeLine="134" d="M558.114,127.8262 C576.498,138.3922 596.328,150.9742 613.2,164.4082 C684.768,221.3962 752.707,301.57 785.743,342.682 " fill="none" id="BasicTableWrapper-to-CommandBase" style="stroke:#181818;stroke-width:0.6;stroke-dasharray:7.0,7.0;"/><polygon fill="#181818" points="787.998,345.4882,786.4863,339.7755,786.1188,343.1497,782.7447,342.7822,787.998,345.4882" style="stroke:#181818;stroke-width:0.6;"/><polygon fill="#000000" points="666.9816,180.9547,664.2454,175.9472,661.8246,178.5119,666.9816,180.9547" style="stroke:#000000;stroke-width:0.6;"/><text fill="#000000" font-family="sans-serif" font-size="7.8" lengthAdjust="spacing" textLength="16.8" x="670.2" y="182.1252">uses</text><text fill="#000000" font-family="sans-serif" font-size="7.8" lengthAdjust="spacing" textLength="3" x="781.6349" y="338.8115">*</text></g><!--link BasicTableWrapper to BaseTableList--><g id="link_BasicTableWrapper_BaseTableList"><path codeLine="135" d="M416.0519,130.9497 C394.4099,141.1737 377.892,150.4822 358.2,164.4082 C298.248,206.8042 242.3757,264.5966 203.1297,309.0806 " fill="none" id="BasicTableWrapper-BaseTableList" style="stroke:#181818;stroke-width:0.6;stroke-dasharray:7.0,7.0;"/><polygon fill="none" points="422.562,127.8742,418.2818,127.2419,416.0519,130.9497,420.3321,131.582,422.562,127.8742" style="stroke:#181818;stroke-width:0.6;"/><polygon fill="#181818" points="200.748,311.7802,206.1202,309.3187,202.7327,309.5306,202.5208,306.1431,200.748,311.7802" style="stroke:#181818;stroke-width:0.6;"/><polygon fill="#000000" points="358.899,180.8205,364.193,178.6906,361.93,175.9857,358.899,180.8205" style="stroke:#000000;stroke-width:0.6;"/><text fill="#000000" font-family="sans-serif" font-size="7.8" lengthAdjust="spacing" textLength="16.8" x="366.6" y="182.1252">uses</text><text fill="#000000" font-family="sans-serif" font-size="7.8" lengthAdjust="spacing" textLength="3" x="201.2325" y="305.2729">*</text></g><!--link CreateButtonFactory to ButtonBase--><g id="link_CreateButtonFactory_ButtonBase"><path codeLine="137" d="M1113.6,640.4722 C1113.6,662.8462 1113.6,695.9962 1113.6,722.1622 " fill="none" id="CreateButtonFactory-to-ButtonBase" style="stroke:#181818;stroke-width:0.6;stroke-dasharray:7.0,7.0;"/><polygon fill="#181818" points="1113.6,725.7622,1116,720.3622,1113.6,722.7622,1111.2,720.3622,1113.6,725.7622" style="stroke:#181818;stroke-width:0.6;"/><polygon fill="#000000" points="1116.6,686.7955,1118.3634,681.3685,1114.8366,681.3685,1116.6,686.7955" style="stroke:#000000;stroke-width:0.6;"/><text fill="#000000" font-family="sans-serif" font-size="7.8" lengthAdjust="spacing" textLength="25.8" x="1122" y="687.0252">creates</text><text fill="#000000" font-family="sans-serif" font-size="7.8" lengthAdjust="spacing" textLength="3" x="1110.4078" y="719.3132">*</text></g><!--link TableListBuilder to BaseTableList--><g id="link_TableListBuilder_BaseTableList"><path codeLine="139" d="M1749.9519,289.869 C1731.6279,270.351 1714.398,257.1502 1689.6,246.6082 C1619.286,216.7222 386.76,222.0862 314.4,246.6082 C275.34,259.8442 240.9932,284.2687 212.1572,309.6307 " fill="none" id="TableListBuilder-BaseTableList" style="stroke:#181818;stroke-width:0.6;stroke-dasharray:7.0,7.0;"/><polygon fill="none" points="1754.88,295.1182,1754.1657,290.8509,1749.9519,289.869,1750.6662,294.1363,1754.88,295.1182" style="stroke:#181818;stroke-width:0.6;"/><polygon fill="#181818" points="209.454,312.0082,215.0938,310.244,211.7067,310.0269,211.9238,306.6398,209.454,312.0082" style="stroke:#181818;stroke-width:0.6;"/><polygon fill="#000000" points="790.2002,218.2341,795.6495,219.9275,795.6042,216.4011,790.2002,218.2341" style="stroke:#000000;stroke-width:0.6;"/><text fill="#000000" font-family="sans-serif" font-size="7.8" lengthAdjust="spacing" textLength="25.8" x="798.6" y="221.4252">creates</text><text fill="#000000" font-family="sans-serif" font-size="7.8" lengthAdjust="spacing" textLength="3" x="210.7533" y="305.3173">*</text></g><!--SRC=[bLTBRziu4BxxLn0zoQbjOAz2422EKoH0MYnY5Nieza1B4vLTMHGeogcty7_VeVWIHTdrEXTxE8zlldcGQMZ-3os1_6XN3PKIHBtQTQmgG91VirbUqROb6TrLyC9QkNOd13yVYJmsa9Aj5AmkZIZdjQIi1X79gsvVVw5xQEt9jvk_pQ7Wxu7KYAEujxVelfMYooKNTtT6hGMP8P1aY6QU4lcTjLxZmU9A8eJpTApge2O6zdq8UspnYlYJKHA1JazfCa_Nj0MNrUo4VxF65q2g4qzxeEmu3wI9gLKQSJK_GzQkavBNdwWI7bFo881AM0-5jc2znzS-ALPBA4449vgbw510ZT4zG2p4WREYFrqghfw0ea8iN_FY64W_4lW9UIS1Yx3Vqxh0akh0_Qy5sSaw9K_PvnSD_x62FTHohaZL16w1Lb1u2k6dH7GHiKx_iJzN1x7DHj2o38ziHMYXOsWO2MyaG-Bd4zWyj0btvz6DsiJEgQ55DOm2GdTOR2mXqH4CJSgRGQhH3kG9711KHaK9qWt3PDzeqrysnCcLnbHaD56BCwL9NN5F6hCX0ogGEkUCbWQWuoD8v1IRgSQvskRUrEgvVkDJse7om-lNpMyysywfbLDLrFkws0ZUJElRlXvhczsX23DKBOZSOLwf4lM0jv2hjd9C3kS46_1Ftl03pfrW9SxYOvKq8q7WNSr8p0dE-iLiNISizPPi61HeetiWz1yLsaTxuXKhw743EHSKE-n_XCmsndyRzLqGd0oY-y1vl-gouhbkEldeziZPolPZDpLtRtfFshapoxflz6ZQm38JxW6luEt2- -l266Avd_4icHwoXGQabaTm6v5BiwSz-1KqI6RKALTgRkdXMgSld5xhLKtjHTNXyCOtMr2PV70-VZfufvQmS0E_2zeq-eKqshfem_Jz-9VJqV6CZNfM14-Zo2BgxU12cC-YNQolN7TtkgLa9YrZ-7YnQ0QNp1ZdoTwQ7PCvXhpAP4HC2-B0SZi2WzUZMgNRuD0ydh1FCgwlpwFYHcS_P6b1fXQCRsVjgC8kkihDsKqHPlB61EpyDEjKFXdXPXqayIwOXA-O-uPAcdJuvRdetqKBqdOx3w2XHmNJDTh01Tx0ltKmZwVN0i9kUMDb08hLJ39QiN_1AYLcBVjy1_dmvN9vHpxyyM7iCoLt116riwYEiGdwEQ- -Mgsqzd3HElNPKEeSJprFP-43wQBkbEhDEGHnWsl8vmnYVUuCmi23B2UsaZVokqnPw0s5Hj7_GHS3MRF_0000]--></g></svg>